<svg xmlns="http://www.w3.org/2000/svg" xmlns:xlink="http://www.w3.org/1999/xlink" width="256" zoomAndPan="magnify" viewBox="0 0 192 191.999996" height="256" preserveAspectRatio="xMidYMid meet" version="1.0"><path fill="#004aad" d="M 143.800781 63.734375 L 159.734375 63.734375 C 161.253906 63.734375 162.488281 64.960938 162.488281 66.484375 C 162.488281 68.003906 161.253906 69.234375 159.734375 69.234375 L 143.800781 69.234375 C 142.285156 69.234375 141.046875 68.003906 141.046875 66.484375 C 141.046875 64.960938 142.285156 63.734375 143.800781 63.734375 Z M 127.855469 34.628906 C 126.78125 33.554688 126.78125 31.808594 127.855469 30.738281 L 139.121094 19.46875 C 140.195312 18.394531 141.9375 18.394531 143.011719 19.46875 C 144.085938 20.542969 144.085938 22.285156 143.011719 23.363281 L 131.746094 34.628906 C 130.667969 35.707031 128.925781 35.703125 127.855469 34.628906 Z M 29.511719 66.484375 C 29.511719 64.964844 30.746094 63.734375 32.261719 63.734375 L 48.199219 63.734375 C 49.71875 63.734375 50.949219 64.960938 50.949219 66.484375 C 50.949219 68.003906 49.71875 69.234375 48.199219 69.234375 L 32.261719 69.234375 C 30.746094 69.234375 29.511719 68.003906 29.511719 66.484375 Z M 48.988281 23.363281 C 47.914062 22.285156 47.914062 20.542969 48.988281 19.46875 C 50.0625 18.394531 51.804688 18.394531 52.878906 19.46875 L 64.144531 30.738281 C 65.886719 32.476562 64.625 35.433594 62.195312 35.433594 C 61.496094 35.433594 60.789062 35.164062 60.253906 34.628906 Z M 93.25 18.679688 L 93.25 2.746094 C 93.25 1.230469 94.476562 -0.00390625 96 -0.00390625 C 97.519531 -0.00390625 98.75 1.230469 98.75 2.746094 L 98.75 18.679688 C 98.75 20.203125 97.519531 21.433594 96 21.433594 C 94.480469 21.433594 93.25 20.203125 93.25 18.679688 Z M 96 34.234375 C 108.917969 34.234375 119.425781 43.71875 119.425781 55.382812 C 119.425781 60.261719 117.535156 65.023438 114.109375 68.792969 C 109.199219 74.1875 107.839844 77.957031 105.359375 84.300781 C 105 84.253906 104.636719 84.214844 104.261719 84.214844 L 87.738281 84.214844 C 87.363281 84.214844 86.996094 84.253906 86.640625 84.300781 C 84.160156 77.960938 82.796875 74.183594 77.890625 68.792969 C 74.460938 65.023438 72.574219 60.261719 72.574219 55.382812 C 72.574219 43.71875 83.082031 34.234375 96 34.234375 Z M 98.835938 104.460938 L 93.167969 104.460938 C 90.734375 104.460938 88.785156 102.515625 88.785156 99.996094 L 103.214844 99.996094 C 103.214844 102.515625 101.265625 104.460938 98.835938 104.460938 Z M 106.648438 92.105469 C 106.648438 93.417969 105.578125 94.492188 104.261719 94.492188 L 87.738281 94.492188 C 86.421875 94.492188 85.351562 93.417969 85.351562 92.105469 C 85.351562 90.789062 86.421875 89.71875 87.738281 89.71875 L 104.261719 89.71875 C 105.578125 89.71875 106.648438 90.789062 106.648438 92.105469 Z M 79.996094 82.433594 L 81.769531 86.960938 C 78.6875 90.519531 79.40625 95.945312 83.277344 98.609375 L 83.277344 100.074219 C 83.277344 105.527344 87.710938 109.964844 93.167969 109.964844 L 98.835938 109.964844 C 104.285156 109.964844 108.71875 105.527344 108.71875 100.074219 L 108.71875 98.609375 C 112.601562 95.941406 113.3125 90.523438 110.230469 86.957031 C 112.53125 81.085938 113.664062 77.457031 118.179688 72.496094 C 122.53125 67.710938 124.925781 61.632812 124.925781 55.382812 C 124.925781 40.683594 111.949219 28.730469 96 28.730469 C 80.046875 28.730469 67.074219 40.683594 67.074219 55.382812 C 67.074219 61.632812 69.464844 67.710938 73.816406 72.496094 C 76.589844 75.542969 78.496094 78.605469 79.996094 82.433594 Z M 184.035156 183.890625 C 183.105469 184.582031 182.4375 185.007812 181.132812 184.78125 C 180.195312 184.621094 179.511719 184.175781 178.984375 183.386719 C 173.945312 175.875 167.253906 170.007812 158.527344 165.453125 C 156.703125 164.503906 154.515625 165.824219 154.503906 167.878906 L 154.398438 187.691406 C 154.398438 188.222656 153.945312 188.683594 153.40625 188.683594 L 129.414062 188.683594 C 128.878906 188.683594 128.425781 188.222656 128.425781 187.691406 L 128.425781 156.113281 C 128.425781 154.953125 127.695312 153.914062 126.597656 153.523438 C 114.695312 149.273438 105.738281 141.984375 99.226562 131.242188 C 98.320312 129.746094 98.746094 127.816406 100.191406 126.847656 C 101.183594 126.183594 101.855469 125.804688 103.132812 126.082031 C 104.0625 126.28125 104.726562 126.757812 105.222656 127.566406 C 117.085938 147.011719 138.039062 153.054688 156.53125 158.382812 C 168.59375 162.117188 177.847656 169.015625 184.816406 179.460938 C 185.78125 180.910156 185.441406 182.855469 184.035156 183.890625 Z M 92.773438 131.242188 C 86.257812 141.984375 77.304688 149.273438 65.402344 153.523438 C 64.304688 153.917969 63.574219 154.953125 63.574219 156.113281 L 63.574219 187.691406 C 63.574219 188.222656 63.121094 188.679688 62.582031 188.679688 L 38.59375 188.679688 C 38.054688 188.679688 37.601562 188.222656 37.601562 187.671875 L 37.496094 167.878906 C 37.484375 165.804688 35.277344 164.511719 33.46875 165.453125 C 24.746094 170.007812 18.054688 175.875 13.015625 183.386719 C 11.972656 184.945312 9.882812 185.308594 8.375 184.195312 L 7.960938 183.890625 C 6.5625 182.855469 6.21875 180.910156 7.1875 179.460938 C 14.152344 169.011719 23.402344 162.117188 35.46875 158.382812 C 53.960938 153.054688 74.914062 147.011719 86.777344 127.566406 C 87.753906 125.964844 89.824219 125.511719 91.382812 126.5625 L 91.804688 126.847656 C 93.25 127.816406 93.675781 129.746094 92.773438 131.242188 Z M 189.394531 176.40625 C 181.796875 165.015625 171.28125 157.183594 158.132812 153.117188 C 158.117188 153.113281 158.101562 153.105469 158.082031 153.101562 C 139.691406 147.804688 120.671875 142.328125 109.917969 124.703125 C 107.304688 120.417969 101.710938 119.199219 97.546875 121.992188 L 96 123.1875 C 93.757812 121.074219 90.789062 120.027344 87.6875 120.703125 C 85.292969 121.226562 83.359375 122.609375 82.078125 124.703125 C 71.324219 142.328125 52.304688 147.804688 33.917969 153.101562 C 33.898438 153.109375 33.882812 153.113281 33.867188 153.117188 C 20.71875 157.183594 10.199219 165.015625 2.605469 176.40625 C 0.00390625 180.304688 0.921875 185.539062 4.695312 188.320312 C 6.898438 189.945312 9.007812 190.695312 11.808594 190.207031 C 14.222656 189.785156 16.222656 188.488281 17.585938 186.453125 C 21.304688 180.910156 26.046875 176.351562 32.015625 172.617188 L 32.097656 187.691406 C 32.097656 191.269531 35.011719 194.183594 38.59375 194.183594 L 62.582031 194.183594 C 66.164062 194.183594 69.078125 191.269531 69.078125 187.691406 L 69.078125 158.023438 C 80.3125 153.621094 89.351562 146.359375 96 136.40625 C 102.648438 146.363281 111.683594 153.621094 122.921875 158.023438 L 122.921875 187.691406 C 122.921875 191.269531 125.832031 194.183594 129.414062 194.183594 L 153.40625 194.183594 C 156.988281 194.183594 159.898438 191.269531 159.898438 187.707031 L 159.980469 172.617188 C 165.949219 176.351562 170.691406 180.910156 174.414062 186.453125 C 177.199219 190.609375 182.863281 191.605469 186.890625 188.625 L 187.300781 188.316406 C 191.078125 185.539062 191.996094 180.300781 189.394531 176.40625 Z M 149.6875 137.796875 C 155.570312 137.796875 160.351562 133.011719 160.351562 127.132812 C 160.351562 121.25 155.570312 116.464844 149.6875 116.464844 C 143.808594 116.464844 139.023438 121.25 139.023438 127.132812 C 139.023438 133.011719 143.808594 137.796875 149.6875 137.796875 Z M 149.6875 110.960938 C 140.773438 110.960938 133.519531 118.214844 133.519531 127.132812 C 133.519531 136.046875 140.773438 143.300781 149.6875 143.300781 C 158.601562 143.300781 165.855469 136.046875 165.855469 127.132812 C 165.855469 118.214844 158.601562 110.960938 149.6875 110.960938 Z M 42.3125 116.464844 C 36.429688 116.464844 31.644531 121.25 31.644531 127.128906 C 31.644531 133.011719 36.429688 137.792969 42.3125 137.792969 C 48.191406 137.792969 52.976562 133.011719 52.976562 127.128906 C 52.976562 121.25 48.191406 116.464844 42.3125 116.464844 Z M 42.3125 143.300781 C 51.226562 143.300781 58.480469 136.046875 58.480469 127.132812 C 58.480469 118.214844 51.226562 110.960938 42.3125 110.960938 C 33.394531 110.960938 26.144531 118.214844 26.144531 127.132812 C 26.144531 136.046875 33.394531 143.300781 42.3125 143.300781 Z M 42.3125 143.300781 " fill-opacity="1" fill-rule="evenodd"/></svg>