<svg xmlns="http://www.w3.org/2000/svg" xmlns:xlink="http://www.w3.org/1999/xlink" width="294" zoomAndPan="magnify" viewBox="0 0 220.5 148.499996" height="198" preserveAspectRatio="xMidYMid meet" version="1.0"><defs><clipPath id="06b4eb235c"><path d="M 0.121094 0 L 219.882812 0 L 219.882812 148 L 0.121094 148 Z M 0.121094 0 " clip-rule="nonzero"/></clipPath><clipPath id="39f7e24329"><path d="M 64.273438 19.09375 L 155.46875 19.09375 L 155.46875 119.980469 L 64.273438 119.980469 Z M 64.273438 19.09375 " clip-rule="nonzero"/></clipPath></defs><g clip-path="url(#06b4eb235c)"><path fill="#ffffff" d="M 0.121094 0 L 219.882812 0 L 219.882812 148 L 0.121094 148 Z M 0.121094 0 " fill-opacity="1" fill-rule="nonzero"/><path fill="#ffffff" d="M 0.121094 0 L 219.882812 0 L 219.882812 148 L 0.121094 148 Z M 0.121094 0 " fill-opacity="1" fill-rule="nonzero"/></g><g clip-path="url(#39f7e24329)"><path fill="#203b72" d="M 98.507812 108.070312 L 88.15625 110.996094 C 87.890625 111.070312 87.605469 111.003906 87.402344 110.816406 C 87.203125 110.628906 87.113281 110.347656 87.167969 110.078125 C 87.167969 110.078125 87.429688 108.8125 87.195312 107.578125 C 87.0625 106.886719 86.78125 106.183594 86.089844 105.839844 C 85.15625 105.371094 84.75 104.910156 84.5625 104.496094 C 84.40625 104.148438 84.382812 103.804688 84.433594 103.4375 C 84.464844 103.203125 84.535156 102.960938 84.59375 102.691406 C 84.652344 102.425781 84.695312 102.128906 84.59375 101.765625 C 84.296875 100.734375 83.660156 99.894531 83.292969 99.476562 C 79.289062 100.28125 74.109375 100.460938 71.203125 99.21875 C 70.019531 98.710938 69.183594 97.964844 68.808594 97 C 68.4375 96.050781 68.496094 94.847656 69.261719 93.363281 C 69.78125 92.347656 69.898438 91.675781 69.730469 91.152344 C 69.558594 90.613281 69.128906 90.265625 68.742188 89.886719 C 67.933594 89.101562 67.226562 88.277344 67.410156 86.832031 C 67.4375 86.59375 67.574219 86.382812 67.777344 86.257812 L 68.4375 85.851562 L 67.789062 85.464844 C 67.433594 85.253906 67.300781 84.804688 67.484375 84.4375 C 67.484375 84.4375 68.058594 83.285156 68.171875 82.246094 C 68.195312 82.03125 68.203125 81.820312 68.160156 81.632812 C 68.128906 81.507812 68.074219 81.398438 67.941406 81.355469 C 64.378906 80.167969 64.285156 78.503906 64.285156 78.503906 C 64.269531 78.414062 64.273438 78.320312 64.292969 78.230469 C 64.496094 77.257812 65.101562 76.25 65.976562 75.039062 C 67.109375 73.46875 68.707031 71.488281 70.28125 68.546875 L 68.632812 65.46875 C 68.148438 64.566406 68.058594 63.503906 68.382812 62.535156 C 68.382812 62.535156 71.230469 53.992188 71.230469 53.992188 C 70.375 53.394531 68.636719 52.042969 67.164062 50.101562 C 65.773438 48.269531 64.625 45.910156 64.617188 43.167969 C 64.609375 40.265625 65.871094 36.902344 69.601562 33.261719 C 69.878906 32.992188 70.3125 32.964844 70.621094 33.195312 C 70.929688 33.425781 71.03125 33.84375 70.851562 34.1875 C 70.851562 34.1875 70.355469 35.183594 70.644531 36.4375 C 71.167969 34.488281 72.636719 31.871094 76.644531 30.285156 C 76.933594 30.167969 77.265625 30.234375 77.488281 30.453125 C 77.710938 30.671875 77.78125 31 77.675781 31.292969 C 77.675781 31.292969 77.132812 32.632812 77.878906 33.570312 C 78.449219 34.28125 79.671875 34.664062 82.09375 34.382812 C 83.269531 34.25 88.097656 32.84375 94.046875 32.511719 L 95.222656 29.878906 C 95.550781 29.140625 96.285156 28.664062 97.097656 28.664062 L 131.25 28.664062 C 132.203125 23.96875 136.355469 20.433594 141.328125 20.433594 C 144.34375 20.433594 147.058594 21.734375 148.941406 23.804688 C 150.417969 22.359375 151.867188 20.992188 152.90625 20.144531 C 153.679688 19.515625 154.296875 19.164062 154.597656 19.109375 C 154.949219 19.046875 155.207031 19.15625 155.382812 19.308594 C 155.5625 19.460938 155.722656 19.710938 155.691406 20.109375 C 155.664062 20.425781 155.363281 21.132812 154.796875 22.054688 C 153.957031 23.425781 152.546875 25.425781 151.078125 27.433594 C 151.425781 28.464844 151.613281 29.570312 151.613281 30.71875 C 151.613281 36.394531 147.003906 41.003906 141.328125 41.003906 C 136.355469 41.003906 132.203125 37.464844 131.25 32.773438 L 101.609375 32.773438 C 105.75 33.34375 109.941406 34.730469 113.539062 37.507812 C 118.367188 41.234375 122.164062 47.476562 123.300781 57.710938 C 123.5 59.480469 123.59375 63.308594 122.558594 68.152344 L 131.25 68.152344 C 132.203125 63.460938 136.355469 59.921875 141.328125 59.921875 C 144.589844 59.921875 147.496094 61.441406 149.382812 63.808594 C 150.703125 62.527344 151.972656 61.34375 152.90625 60.578125 C 153.679688 59.949219 154.296875 59.597656 154.597656 59.546875 C 154.949219 59.480469 155.207031 59.59375 155.382812 59.742188 C 155.5625 59.898438 155.722656 60.148438 155.691406 60.542969 C 155.664062 60.859375 155.363281 61.566406 154.796875 62.492188 C 153.996094 63.800781 152.671875 65.679688 151.28125 67.59375 C 151.496094 68.429688 151.613281 69.304688 151.613281 70.207031 C 151.613281 75.882812 147.003906 80.492188 141.328125 80.492188 C 136.355469 80.492188 132.203125 76.953125 131.25 72.261719 L 121.457031 72.261719 C 119.878906 77.144531 117.113281 82.65625 112.359375 87.988281 C 110.027344 91.078125 109.824219 93.515625 110.441406 96.34375 C 110.878906 98.363281 111.710938 100.566406 112.503906 103.285156 C 112.566406 103.488281 112.539062 103.703125 112.4375 103.890625 C 112.335938 104.074219 112.164062 104.207031 111.964844 104.265625 L 102.566406 106.921875 L 102.933594 107.59375 L 102.957031 107.640625 L 131.25 107.640625 C 132.203125 102.949219 136.355469 99.410156 141.328125 99.410156 C 144.835938 99.410156 147.933594 101.167969 149.792969 103.847656 C 150.960938 102.722656 152.070312 101.699219 152.90625 101.015625 C 153.679688 100.382812 154.296875 100.035156 154.597656 99.980469 C 154.949219 99.917969 155.207031 100.027344 155.382812 100.179688 C 155.5625 100.332031 155.722656 100.582031 155.691406 100.976562 C 155.664062 101.292969 155.363281 102 154.796875 102.925781 C 154.027344 104.183594 152.777344 105.96875 151.441406 107.808594 C 151.554688 108.417969 151.613281 109.050781 151.613281 109.695312 C 151.613281 115.371094 147.003906 119.980469 141.328125 119.980469 C 136.355469 119.980469 132.203125 116.441406 131.25 111.75 L 101.742188 111.75 C 100.992188 111.75 100.304688 111.339844 99.941406 110.683594 Z M 72.953125 53.605469 C 72.960938 53.707031 72.949219 53.816406 72.917969 53.921875 L 69.878906 63.035156 C 69.691406 63.59375 69.742188 64.203125 70.023438 64.722656 L 71.871094 68.171875 C 71.992188 68.402344 71.996094 68.679688 71.875 68.910156 C 70.1875 72.140625 68.464844 74.28125 67.253906 75.960938 C 66.605469 76.855469 66.105469 77.597656 65.894531 78.316406 C 66.074219 78.574219 66.710938 79.285156 68.441406 79.859375 C 69.304688 80.144531 69.699219 80.839844 69.757812 81.714844 C 69.820312 82.617188 69.457031 83.75 69.183594 84.457031 L 70.363281 85.160156 C 70.601562 85.300781 70.746094 85.554688 70.75 85.832031 C 70.75 86.109375 70.609375 86.363281 70.375 86.507812 C 70.375 86.507812 68.964844 87.378906 68.964844 87.378906 C 69 87.773438 69.191406 88.0625 69.421875 88.328125 C 69.707031 88.648438 70.042969 88.9375 70.339844 89.253906 C 70.828125 89.769531 71.226562 90.355469 71.34375 91.144531 C 71.449219 91.875 71.316406 92.8125 70.660156 94.085938 C 70.167969 95.046875 70.039062 95.8125 70.277344 96.429688 C 70.511719 97.03125 71.082031 97.449219 71.828125 97.769531 C 74.605469 98.960938 79.648438 98.660156 83.398438 97.84375 C 83.652344 97.789062 83.921875 97.863281 84.109375 98.042969 C 84.109375 98.042969 85.5625 99.429688 86.109375 101.335938 C 86.296875 101.996094 86.238281 102.539062 86.136719 103.023438 C 86.097656 103.195312 86.054688 103.359375 86.019531 103.515625 C 85.996094 103.625 85.96875 103.726562 85.992188 103.824219 C 86.011719 103.910156 86.085938 103.972656 86.191406 104.058594 C 86.339844 104.179688 86.535156 104.300781 86.796875 104.429688 C 87.953125 105.007812 88.519531 106.125 88.742188 107.28125 C 88.867188 107.945312 88.878906 108.613281 88.851562 109.160156 L 97.730469 106.652344 L 90.503906 93.476562 C 90.335938 93.171875 90.25 92.832031 90.25 92.488281 L 90.25 70.183594 C 89.851562 70.15625 89.441406 70.109375 89.03125 70.035156 C 87.359375 73.867188 87.09375 76.523438 87.074219 69.40625 C 85.699219 68.742188 84.5 67.578125 83.902344 65.605469 C 82.03125 65.582031 76.824219 65.019531 75.542969 59.644531 C 75.527344 59.585938 75.519531 59.523438 75.519531 59.464844 C 75.519531 59.097656 75.773438 58.78125 76.128906 58.695312 C 76.1875 58.683594 76.246094 58.675781 76.308594 58.675781 C 76.308594 58.675781 83.761719 58.675781 83.761719 58.675781 C 82.957031 57.753906 82.054688 57 81.125 56.378906 L 76.488281 56.378906 C 76.414062 56.378906 76.335938 56.367188 76.265625 56.347656 C 75.929688 56.246094 75.699219 55.9375 75.699219 55.589844 C 75.699219 55.515625 75.710938 55.4375 75.730469 55.367188 C 75.84375 54.984375 75.988281 54.585938 76.167969 54.191406 C 74.832031 53.832031 73.679688 53.671875 72.953125 53.605469 Z M 131.054688 30.242188 L 97.097656 30.242188 C 96.910156 30.242188 96.738281 30.351562 96.660156 30.523438 L 95.292969 33.585938 C 95.292969 33.589844 95.289062 33.597656 95.285156 33.601562 L 89.417969 46.726562 C 89.414062 46.738281 89.410156 46.746094 89.40625 46.757812 L 87.472656 51.082031 C 87.367188 51.320312 87.472656 51.605469 87.714844 51.710938 C 87.957031 51.820312 88.238281 51.710938 88.347656 51.472656 L 90.503906 46.640625 C 90.507812 46.632812 90.511719 46.625 90.511719 46.621094 L 96.632812 32.925781 C 96.636719 32.917969 96.640625 32.910156 96.644531 32.902344 L 97.199219 31.664062 C 97.332031 31.367188 97.285156 31.195312 97.925781 31.195312 L 131.054688 31.195312 C 131.046875 31.039062 131.042969 30.878906 131.042969 30.71875 C 131.042969 30.558594 131.046875 30.398438 131.054688 30.242188 Z M 147.820312 24.914062 C 146.226562 23.132812 143.90625 22.007812 141.328125 22.007812 C 139.890625 22.007812 138.53125 22.359375 137.332031 22.980469 C 136.78125 24.132812 136.46875 25.425781 136.457031 26.785156 C 136.597656 26.46875 136.804688 26.175781 137.078125 25.929688 C 138.125 24.976562 139.75 25.050781 140.703125 26.097656 L 143.570312 29.25 C 144.410156 28.371094 146.058594 26.667969 147.820312 24.914062 Z M 149.585938 26.808594 C 150.722656 25.261719 151.835938 23.703125 152.6875 22.421875 C 151.71875 23.300781 150.585938 24.386719 149.472656 25.492188 C 149.449219 25.515625 149.429688 25.535156 149.40625 25.558594 C 146.710938 28.222656 144.128906 30.949219 144.128906 30.949219 C 143.976562 31.105469 143.773438 31.195312 143.554688 31.195312 C 143.554688 31.195312 143.257812 31.25 142.972656 30.9375 L 142.875 30.832031 L 139.535156 27.160156 C 139.167969 26.753906 138.542969 26.726562 138.136719 27.09375 C 137.734375 27.460938 137.703125 28.089844 138.074219 28.492188 L 142.863281 33.757812 C 143.058594 33.96875 143.328125 34.085938 143.613281 34.082031 C 143.890625 34.078125 144.152344 33.957031 144.339844 33.75 C 144.539062 33.488281 147.082031 30.21875 149.539062 26.875 C 149.550781 26.851562 149.566406 26.832031 149.585938 26.808594 Z M 148.71875 35.328125 C 149.554688 33.992188 150.039062 32.410156 150.039062 30.71875 C 150.039062 30.152344 149.984375 29.597656 149.878906 29.058594 C 147.628906 32.085938 145.570312 34.734375 145.570312 34.734375 C 145.5625 34.742188 145.554688 34.753906 145.546875 34.761719 C 145.070312 35.320312 144.375 35.648438 143.636719 35.660156 C 143.519531 35.660156 143.40625 35.65625 143.292969 35.640625 C 144.003906 35.820312 144.746094 35.914062 145.507812 35.914062 C 146.636719 35.914062 147.71875 35.707031 148.71875 35.328125 Z M 131.054688 69.730469 L 121.585938 69.730469 C 121.578125 69.730469 121.566406 69.730469 121.558594 69.730469 L 116.738281 69.730469 C 116.453125 69.730469 116.191406 69.574219 116.050781 69.328125 L 114.214844 66.066406 C 114.214844 66.058594 114.207031 66.050781 114.203125 66.042969 L 111.5625 61.347656 C 111.433594 61.117188 111.144531 61.035156 110.914062 61.164062 C 110.683594 61.292969 110.601562 61.585938 110.730469 61.816406 L 113.625 66.960938 C 113.625 66.964844 113.628906 66.96875 113.628906 66.96875 L 115.582031 70.441406 C 115.664062 70.589844 115.824219 70.683594 115.996094 70.683594 L 120.863281 70.683594 C 120.875 70.683594 120.886719 70.683594 120.894531 70.683594 L 131.054688 70.683594 C 131.046875 70.527344 131.042969 70.367188 131.042969 70.207031 C 131.042969 70.046875 131.046875 69.886719 131.054688 69.730469 Z M 148.25 64.921875 C 146.65625 62.839844 144.148438 61.496094 141.328125 61.496094 C 139.457031 61.496094 137.722656 62.089844 136.300781 63.097656 C 136.085938 63.898438 135.972656 64.738281 135.972656 65.609375 C 135.972656 66.414062 136.070312 67.199219 136.257812 67.949219 C 136.328125 67.363281 136.601562 66.792969 137.078125 66.363281 C 138.125 65.410156 139.75 65.484375 140.703125 66.535156 L 143.570312 69.6875 C 144.480469 68.738281 146.332031 66.824219 148.25 64.921875 Z M 149.804688 66.945312 C 150.863281 65.496094 151.890625 64.054688 152.6875 62.855469 C 151.832031 63.632812 150.851562 64.570312 149.863281 65.539062 C 149.84375 65.5625 149.820312 65.585938 149.796875 65.605469 C 146.96875 68.390625 144.128906 71.382812 144.128906 71.382812 C 143.976562 71.539062 143.773438 71.628906 143.554688 71.628906 C 143.554688 71.628906 143.257812 71.683594 142.972656 71.371094 L 142.875 71.265625 L 139.535156 67.59375 C 139.167969 67.191406 138.542969 67.160156 138.136719 67.527344 C 137.734375 67.894531 137.703125 68.523438 138.074219 68.925781 L 142.863281 74.195312 C 143.058594 74.40625 143.328125 74.523438 143.613281 74.519531 C 143.890625 74.515625 144.152344 74.390625 144.339844 74.183594 C 144.546875 73.917969 147.238281 70.453125 149.757812 67.007812 C 149.773438 66.984375 149.789062 66.964844 149.804688 66.945312 Z M 148.699219 74.847656 C 149.546875 73.503906 150.039062 71.914062 150.039062 70.207031 C 150.039062 69.914062 150.023438 69.625 149.996094 69.339844 C 147.699219 72.429688 145.570312 75.167969 145.570312 75.167969 C 145.5625 75.175781 145.554688 75.1875 145.546875 75.195312 C 145.511719 75.238281 145.472656 75.28125 145.433594 75.320312 C 145.519531 75.324219 145.605469 75.324219 145.6875 75.324219 C 146.738281 75.324219 147.75 75.15625 148.699219 74.847656 Z M 101.785156 105.503906 L 110.765625 102.964844 C 110.03125 100.550781 109.304688 98.539062 108.898438 96.679688 C 108.429688 94.519531 108.371094 92.558594 109.160156 90.441406 C 101.730469 89.292969 96.964844 86.125 96.964844 86.125 L 94.359375 79.507812 C 96.648438 79.0625 98.390625 77.097656 99.460938 74.671875 C 99.394531 74.605469 99.332031 74.539062 99.265625 74.472656 C 98.003906 73.226562 96.484375 72.34375 95.992188 72.074219 C 95.929688 72.042969 95.867188 72.007812 95.808594 71.972656 C 95.804688 71.972656 95.804688 71.972656 95.804688 71.972656 C 95.308594 71.695312 94.820312 71.347656 94.359375 70.910156 L 94.359375 91.960938 Z M 131.054688 109.21875 L 102.492188 109.21875 C 102.492188 109.21875 102.058594 109.273438 101.796875 108.804688 L 101.550781 108.351562 L 100.714844 106.824219 C 100.707031 106.816406 100.703125 106.808594 100.699219 106.800781 L 92.878906 92.542969 C 92.816406 92.425781 92.78125 92.296875 92.78125 92.164062 L 92.78125 69.167969 C 92.78125 69.15625 92.78125 69.148438 92.78125 69.136719 L 92.78125 65.894531 C 92.78125 65.628906 92.566406 65.417969 92.304688 65.417969 C 92.039062 65.417969 91.828125 65.628906 91.828125 65.894531 C 91.828125 65.894531 91.828125 69.417969 91.828125 69.421875 L 91.828125 92.488281 C 91.828125 92.570312 91.847656 92.648438 91.882812 92.71875 L 99.582031 106.746094 C 99.585938 106.757812 99.589844 106.765625 99.597656 106.773438 L 101.324219 109.925781 C 101.410156 110.078125 101.570312 110.171875 101.742188 110.171875 L 131.054688 110.171875 C 131.046875 110.015625 131.042969 109.855469 131.042969 109.695312 C 131.042969 109.535156 131.046875 109.375 131.054688 109.21875 Z M 148.644531 104.96875 C 147.089844 102.574219 144.394531 100.984375 141.328125 100.984375 C 139.65625 100.984375 138.09375 101.457031 136.765625 102.277344 C 136.425781 103.28125 136.238281 104.359375 136.238281 105.476562 C 136.238281 106.214844 136.320312 106.933594 136.472656 107.625 C 136.613281 107.320312 136.8125 107.039062 137.078125 106.796875 C 138.125 105.84375 139.75 105.921875 140.703125 106.96875 L 143.570312 110.121094 C 144.542969 109.105469 146.585938 106.992188 148.644531 104.96875 Z M 149.988281 107.128906 C 150.980469 105.765625 151.9375 104.417969 152.6875 103.289062 C 151.9375 103.972656 151.085938 104.78125 150.222656 105.625 C 150.199219 105.648438 150.179688 105.667969 150.152344 105.691406 C 147.210938 108.566406 144.128906 111.820312 144.128906 111.820312 C 143.976562 111.976562 143.773438 112.0625 143.554688 112.0625 C 143.554688 112.0625 143.257812 112.121094 142.972656 111.804688 L 142.875 111.699219 L 139.535156 108.03125 C 139.167969 107.625 138.542969 107.597656 138.136719 107.964844 C 137.734375 108.332031 137.703125 108.957031 138.074219 109.363281 L 142.863281 114.628906 C 143.058594 114.839844 143.328125 114.957031 143.613281 114.953125 C 143.890625 114.949219 144.152344 114.828125 144.339844 114.617188 C 144.550781 114.34375 147.367188 110.71875 149.941406 107.191406 C 149.957031 107.171875 149.96875 107.148438 149.988281 107.128906 Z M 148.042969 115.238281 C 149.285156 113.738281 150.035156 111.8125 150.039062 109.714844 C 148.089844 112.339844 146.253906 114.71875 145.722656 115.40625 C 145.875 115.410156 146.027344 115.414062 146.175781 115.414062 C 146.8125 115.414062 147.4375 115.355469 148.042969 115.238281 Z M 136.84375 29.480469 C 137.667969 32.214844 139.75 34.402344 142.417969 35.375 C 142.152344 35.234375 141.90625 35.046875 141.699219 34.820312 L 136.90625 29.554688 C 136.882812 29.527344 136.863281 29.503906 136.84375 29.480469 Z M 137.164062 70.269531 C 137.90625 71.625 138.964844 72.785156 140.238281 73.652344 Z M 102.492188 109.21875 C 102.925781 109.21875 102.492188 109.21875 102.492188 109.21875 Z M 87.496094 47.171875 C 86.449219 47.214844 85.617188 47.480469 84.957031 47.871094 C 82.949219 49.054688 82.558594 51.3125 82.558594 51.3125 C 82.5 51.671875 82.199219 51.945312 81.835938 51.96875 C 79.5 52.125 78.273438 53.4375 77.628906 54.800781 L 93.28125 54.800781 L 93.28125 47.507812 C 92.917969 47.734375 92.714844 47.898438 92.714844 47.898438 C 92.5 48.078125 92.203125 48.125 91.941406 48.027344 C 91.84375 47.992188 91.75 47.957031 91.65625 47.925781 L 89.785156 52.113281 C 89.320312 53.148438 88.105469 53.613281 87.070312 53.152344 C 86.035156 52.6875 85.570312 51.472656 86.035156 50.4375 Z M 85.277344 64.636719 C 85.933594 67.625 88.25 68.453125 90.25 68.601562 L 90.25 65.894531 C 90.25 64.761719 91.167969 63.839844 92.304688 63.839844 C 93.4375 63.839844 94.359375 64.761719 94.359375 65.894531 L 94.359375 68.484375 C 94.414062 68.53125 94.464844 68.585938 94.503906 68.648438 C 95.113281 69.550781 95.816406 70.175781 96.5625 70.589844 C 96.585938 70.601562 96.636719 70.628906 96.714844 70.671875 C 96.726562 70.679688 96.738281 70.683594 96.75 70.691406 C 97.324219 71.007812 98.988281 71.984375 100.375 73.351562 C 101.402344 74.371094 102.253906 75.605469 102.507812 76.941406 C 102.507812 76.941406 105.238281 76.941406 105.238281 76.941406 L 103.59375 71.605469 C 103.542969 71.449219 103.546875 71.28125 103.597656 71.125 C 103.675781 70.882812 103.871094 70.695312 104.113281 70.621094 C 104.269531 70.574219 104.4375 70.574219 104.59375 70.625 C 104.917969 70.734375 105.230469 70.824219 105.527344 70.902344 L 94.878906 60.25 L 77.382812 60.25 C 79.097656 64.484375 84.304688 64.03125 84.433594 64.019531 C 84.4375 64.019531 84.4375 64.019531 84.4375 64.019531 C 84.832031 63.984375 85.195312 64.25 85.277344 64.636719 Z M 111.214844 68.882812 C 111.382812 68.398438 111.433594 67.96875 111.4375 67.757812 C 111.4375 67.753906 111.4375 67.753906 111.4375 67.753906 C 111.441406 67.464844 111.601562 67.203125 111.855469 67.066406 C 111.855469 67.066406 111.867188 67.0625 111.871094 67.058594 L 109.359375 62.589844 C 108.800781 61.601562 109.152344 60.347656 110.140625 59.792969 C 111.128906 59.234375 112.382812 59.585938 112.9375 60.574219 L 114.917969 64.097656 C 115.40625 62.882812 115.214844 61.621094 114.761719 60.484375 C 114.222656 59.125 113.324219 57.933594 112.636719 57.148438 C 111.601562 59.605469 108.71875 60.488281 106.523438 59.375 C 104.878906 58.542969 104.171875 55.964844 105.457031 53.285156 C 105.199219 55.816406 106.019531 57.351562 107.238281 57.96875 C 108.933594 58.828125 111.238281 57.820312 111.4375 55.472656 C 111.585938 53.757812 111.234375 52.503906 110.582031 51.59375 C 109.597656 50.21875 107.964844 49.640625 106.535156 49.386719 C 104.863281 49.089844 103.433594 49.238281 103.433594 49.238281 C 103.171875 49.269531 102.917969 49.164062 102.746094 48.964844 C 101.421875 47.394531 100.035156 46.625 98.730469 46.339844 L 98.730469 56.398438 Z M 111.214844 68.882812 " fill-opacity="1" fill-rule="evenodd"/></g></svg>