<svg xmlns="http://www.w3.org/2000/svg" xmlns:xlink="http://www.w3.org/1999/xlink" width="256" zoomAndPan="magnify" viewBox="0 0 192 191.999996" height="256" preserveAspectRatio="xMidYMid meet" version="1.0"><defs><clipPath id="af3180d045"><path d="M 14.039062 87.265625 L 191.949219 87.265625 L 191.949219 192 L 14.039062 192 Z M 14.039062 87.265625 " clip-rule="nonzero"/></clipPath><clipPath id="c6dc681591"><path d="M 101 11.070312 L 174 11.070312 L 174 83 L 101 83 Z M 101 11.070312 " clip-rule="nonzero"/></clipPath></defs><path fill="#004aad" d="M 6.242188 112.6875 C 4.792969 112.148438 3.183594 112.886719 2.644531 114.335938 C 0.921875 118.964844 0.0507812 123.839844 0.0507812 128.820312 L 0.0507812 189.835938 C 0.0507812 191.382812 1.304688 192.636719 2.847656 192.636719 C 4.394531 192.636719 5.648438 191.382812 5.648438 189.835938 L 5.648438 128.820312 C 5.648438 124.507812 6.402344 120.289062 7.890625 116.285156 C 8.429688 114.835938 7.691406 113.226562 6.242188 112.6875 " fill-opacity="1" fill-rule="nonzero"/><path fill="#004aad" d="M 70.207031 87.238281 L 63.042969 87.328125 C 61.496094 87.347656 60.257812 88.613281 60.277344 90.160156 C 60.296875 91.691406 61.546875 92.921875 63.074219 92.921875 C 63.085938 92.921875 63.097656 92.921875 63.109375 92.921875 L 70.257812 92.835938 C 77.332031 92.839844 84.171875 94.890625 90.046875 98.773438 C 90.523438 99.085938 91.058594 99.234375 91.585938 99.234375 C 92.496094 99.234375 93.386719 98.792969 93.925781 97.980469 C 94.777344 96.691406 94.421875 94.953125 93.132812 94.101562 C 86.335938 89.613281 78.417969 87.238281 70.242188 87.238281 C 70.230469 87.238281 70.21875 87.238281 70.207031 87.238281 " fill-opacity="1" fill-rule="nonzero"/><g clip-path="url(#af3180d045)"><path fill="#004aad" d="M 188.695312 112.75 C 186.621094 107.808594 183.65625 103.367188 179.882812 99.542969 C 176.121094 95.726562 171.753906 92.726562 166.898438 90.628906 C 161.898438 88.464844 156.617188 87.359375 151.203125 87.347656 C 150.023438 87.289062 140.074219 86.972656 127.335938 92.496094 C 127.179688 92.535156 127.023438 92.589844 126.871094 92.660156 L 79.292969 114.5 L 46.96875 92.316406 C 46.863281 92.242188 46.753906 92.179688 46.644531 92.121094 C 43.171875 89.742188 38.753906 88.386719 34.445312 88.386719 C 28.824219 88.386719 23.667969 90.445312 19.921875 94.191406 C 16.179688 97.9375 14.117188 103.09375 14.117188 108.714844 C 14.117188 111.675781 14.820312 114.722656 16.152344 117.527344 C 17.554688 120.480469 19.59375 123.007812 22.050781 124.835938 C 22.113281 124.882812 22.175781 124.925781 22.242188 124.96875 C 60.933594 149.914062 64.613281 152.28125 65.007812 152.53125 L 65.003906 152.53125 C 69.097656 155.089844 74.910156 156.253906 78.578125 156.253906 C 82.34375 156.253906 85.648438 155.304688 89.453125 153.878906 C 89.472656 153.871094 89.488281 153.867188 89.503906 153.859375 L 106.335938 147.164062 L 106.335938 189.949219 C 106.335938 191.492188 107.589844 192.746094 109.136719 192.746094 C 110.679688 192.746094 111.933594 191.492188 111.933594 189.949219 L 111.933594 144.9375 L 142.386719 132.824219 C 143.824219 132.253906 144.523438 130.625 143.953125 129.191406 C 143.378906 127.753906 141.753906 127.054688 140.320312 127.625 L 87.464844 148.648438 C 84.148438 149.890625 81.503906 150.660156 78.578125 150.660156 C 75.667969 150.660156 70.964844 149.65625 67.980469 147.792969 C 67.207031 147.300781 27.464844 121.679688 25.355469 120.320312 C 21.925781 117.746094 19.710938 113.199219 19.710938 108.714844 C 19.710938 100.179688 25.910156 93.980469 34.445312 93.980469 C 37.753906 93.980469 41.140625 95.050781 43.730469 96.914062 C 43.863281 97.007812 43.996094 97.089844 44.136719 97.15625 L 77.433594 120.011719 C 78.246094 120.566406 79.292969 120.65625 80.1875 120.246094 L 128.710938 97.972656 C 128.835938 97.9375 128.957031 97.894531 129.082031 97.839844 C 141.277344 92.429688 150.851562 92.933594 150.9375 92.9375 C 151 92.945312 151.058594 92.945312 151.121094 92.945312 C 170.550781 92.945312 186.351562 109.089844 186.351562 128.929688 L 186.351562 189.949219 C 186.351562 191.492188 187.605469 192.746094 189.148438 192.746094 C 190.695312 192.746094 191.949219 191.492188 191.949219 189.949219 L 191.949219 128.929688 C 191.949219 123.332031 190.855469 117.886719 188.695312 112.75 " fill-opacity="1" fill-rule="nonzero"/></g><path fill="#004aad" d="M 24.683594 148.019531 C 23.136719 148.019531 21.882812 149.273438 21.882812 150.820312 L 21.882812 189.835938 C 21.882812 191.382812 23.136719 192.636719 24.683594 192.636719 C 26.226562 192.636719 27.480469 191.382812 27.480469 189.835938 L 27.480469 150.820312 C 27.480469 149.273438 26.226562 148.019531 24.683594 148.019531 " fill-opacity="1" fill-rule="nonzero"/><path fill="#004aad" d="M 89.523438 170.003906 C 87.976562 170.003906 86.726562 171.257812 86.726562 172.800781 L 86.726562 189.835938 C 86.726562 191.382812 87.976562 192.636719 89.523438 192.636719 C 91.070312 192.636719 92.320312 191.382812 92.320312 189.835938 L 92.320312 172.800781 C 92.320312 171.257812 91.070312 170.003906 89.523438 170.003906 " fill-opacity="1" fill-rule="nonzero"/><path fill="#004aad" d="M 29.167969 83.96875 C 30.503906 83.1875 30.949219 81.472656 30.167969 80.140625 C 27.445312 75.507812 26.007812 70.199219 26.007812 64.792969 C 26.007812 48.046875 39.632812 34.425781 56.375 34.425781 C 73.121094 34.425781 86.746094 48.046875 86.746094 64.792969 C 86.746094 70.226562 85.292969 75.558594 82.546875 80.210938 C 81.757812 81.542969 82.203125 83.257812 83.53125 84.042969 C 83.976562 84.304688 84.46875 84.433594 84.953125 84.433594 C 85.910156 84.433594 86.839844 83.941406 87.363281 83.054688 C 90.621094 77.542969 92.339844 71.226562 92.339844 64.792969 C 92.339844 59.9375 91.390625 55.230469 89.511719 50.792969 C 87.703125 46.511719 85.109375 42.664062 81.808594 39.363281 C 78.503906 36.058594 74.660156 33.46875 70.375 31.65625 C 65.941406 29.78125 61.230469 28.828125 56.375 28.828125 C 51.523438 28.828125 46.8125 29.78125 42.378906 31.65625 C 38.09375 33.46875 34.25 36.058594 30.945312 39.363281 C 27.644531 42.664062 25.050781 46.511719 23.242188 50.792969 C 21.363281 55.230469 20.414062 59.9375 20.414062 64.792969 C 20.414062 71.195312 22.117188 77.480469 25.339844 82.972656 C 26.121094 84.304688 27.835938 84.75 29.167969 83.96875 " fill-opacity="1" fill-rule="nonzero"/><g clip-path="url(#c6dc681591)"><path fill="#004aad" d="M 137.492188 16.667969 C 154.191406 16.667969 167.777344 30.253906 167.777344 46.953125 C 167.777344 52.773438 166.121094 58.425781 162.992188 63.296875 C 157.386719 72.027344 147.851562 77.238281 137.492188 77.238281 C 127.878906 77.238281 119.050781 72.824219 113.265625 65.128906 C 109.300781 59.855469 107.207031 53.570312 107.207031 46.953125 C 107.207031 30.253906 120.792969 16.667969 137.492188 16.667969 Z M 121.195312 78.925781 C 126.269531 81.519531 131.753906 82.832031 137.492188 82.832031 C 143.609375 82.832031 149.652344 81.265625 154.960938 78.300781 C 160.105469 75.425781 164.511719 71.285156 167.699219 66.320312 C 171.410156 60.546875 173.375 53.847656 173.375 46.953125 C 173.375 42.109375 172.425781 37.410156 170.554688 32.984375 C 168.746094 28.710938 166.160156 24.875 162.863281 21.578125 C 159.570312 18.285156 155.734375 15.699219 151.460938 13.890625 C 147.035156 12.019531 142.335938 11.070312 137.492188 11.070312 C 132.648438 11.070312 127.949219 12.019531 123.523438 13.890625 C 119.25 15.699219 115.414062 18.285156 112.121094 21.578125 C 108.824219 24.875 106.238281 28.710938 104.429688 32.984375 C 102.558594 37.410156 101.609375 42.109375 101.609375 46.953125 C 101.609375 54.792969 104.09375 62.242188 108.792969 68.492188 C 112.066406 72.847656 116.355469 76.457031 121.195312 78.925781 " fill-opacity="1" fill-rule="nonzero"/></g></svg>