<svg xmlns="http://www.w3.org/2000/svg" xmlns:xlink="http://www.w3.org/1999/xlink" width="256" zoomAndPan="magnify" viewBox="0 0 192 191.999996" height="256" preserveAspectRatio="xMidYMid meet" version="1.0"><path fill="#004aad" d="M 177.078125 59.738281 C 174.675781 59.738281 172.429688 60.304688 170.421875 61.308594 L 110.792969 16.886719 C 110.878906 16.253906 110.945312 15.578125 110.945312 14.921875 C 110.945312 6.699219 104.246094 0 96.023438 0 C 87.796875 0 81.097656 6.699219 81.097656 14.921875 C 81.097656 15.578125 81.164062 16.253906 81.25 16.886719 L 21.601562 61.308594 C 19.59375 60.304688 17.324219 59.738281 14.945312 59.738281 C 6.71875 59.738281 0.0234375 66.4375 0.0234375 74.660156 C 0.0234375 82.078125 5.476562 88.253906 12.609375 89.390625 L 36.132812 163.679688 C 31.179688 166.101562 27.753906 171.183594 27.753906 177.078125 C 27.753906 185.300781 34.449219 192 42.675781 192 C 50.183594 192 56.398438 186.4375 57.449219 179.191406 L 134.597656 179.191406 C 135.644531 186.414062 141.839844 192 149.367188 192 C 157.59375 192 164.289062 185.300781 164.289062 177.078125 C 164.289062 171.183594 160.867188 166.101562 155.914062 163.679688 L 179.433594 89.390625 C 186.566406 88.253906 192.023438 82.101562 192.023438 74.660156 C 192.023438 66.4375 185.324219 59.738281 177.097656 59.738281 Z M 166.757812 63.90625 C 163.921875 66.632812 162.152344 70.449219 162.152344 74.683594 C 162.152344 75.753906 162.261719 76.800781 162.480469 77.804688 L 141.273438 85.613281 C 134.117188 68.550781 117.601562 56.378906 98.160156 55.550781 L 98.160156 29.714844 C 103.222656 28.996094 107.433594 25.746094 109.527344 21.273438 L 166.757812 63.925781 Z M 140.816406 104.550781 C 140.816406 129.25 120.71875 149.34375 96.023438 149.34375 C 71.324219 149.34375 51.230469 129.25 51.230469 104.550781 C 51.230469 79.855469 71.324219 59.761719 96.023438 59.761719 C 120.71875 59.761719 140.816406 79.855469 140.816406 104.550781 Z M 96 4.277344 C 101.890625 4.277344 106.667969 9.054688 106.667969 14.945312 C 106.667969 20.835938 101.890625 25.613281 96 25.613281 C 90.109375 25.613281 85.332031 20.835938 85.332031 14.945312 C 85.332031 9.054688 90.109375 4.277344 96 4.277344 Z M 82.496094 21.25 C 84.589844 25.703125 88.800781 28.972656 93.863281 29.695312 L 93.863281 55.527344 C 74.421875 56.355469 57.882812 68.507812 50.75 85.59375 L 29.542969 77.78125 C 29.761719 76.777344 29.867188 75.730469 29.867188 74.660156 C 29.867188 70.429688 28.101562 66.609375 25.265625 63.882812 Z M 4.277344 74.660156 C 4.277344 68.769531 9.054688 63.992188 14.945312 63.992188 C 20.835938 63.992188 25.613281 68.769531 25.613281 74.660156 C 25.613281 80.550781 20.835938 85.332031 14.945312 85.332031 C 9.054688 85.332031 4.277344 80.550781 4.277344 74.660156 Z M 17.082031 89.433594 C 21.839844 88.757812 25.875 85.832031 28.078125 81.773438 L 49.289062 89.605469 C 47.804688 94.320312 46.953125 99.339844 46.953125 104.53125 C 46.953125 119.957031 54.132812 133.746094 65.28125 142.734375 L 49.722656 163.898438 C 47.605469 162.761719 45.230469 162.132812 42.675781 162.132812 C 41.824219 162.132812 40.996094 162.21875 40.1875 162.371094 L 17.0625 89.433594 Z M 42.675781 187.746094 C 36.785156 187.746094 32.007812 182.96875 32.007812 177.078125 C 32.007812 171.183594 36.785156 166.40625 42.675781 166.40625 C 48.566406 166.40625 53.34375 171.183594 53.34375 177.078125 C 53.34375 182.96875 48.566406 187.746094 42.675781 187.746094 Z M 134.574219 174.9375 L 57.425781 174.9375 C 56.945312 171.621094 55.394531 168.675781 53.128906 166.449219 L 68.683594 145.289062 C 76.496094 150.546875 85.875 153.601562 96 153.601562 C 106.125 153.601562 115.503906 150.523438 123.316406 145.289062 L 138.871094 166.449219 C 136.605469 168.675781 135.054688 171.644531 134.574219 174.9375 Z M 160.015625 177.078125 C 160.015625 182.96875 155.238281 187.746094 149.34375 187.746094 C 143.453125 187.746094 138.675781 182.96875 138.675781 177.078125 C 138.675781 171.183594 143.453125 166.40625 149.34375 166.40625 C 155.238281 166.40625 160.015625 171.183594 160.015625 177.078125 Z M 151.855469 162.371094 C 151.046875 162.21875 150.21875 162.132812 149.367188 162.132812 C 146.835938 162.132812 144.4375 162.761719 142.320312 163.898438 L 126.761719 142.734375 C 137.914062 133.722656 145.089844 119.957031 145.089844 104.53125 C 145.089844 99.316406 144.261719 94.320312 142.757812 89.605469 L 163.964844 81.773438 C 166.167969 85.832031 170.203125 88.757812 174.960938 89.433594 Z M 177.097656 85.332031 C 171.207031 85.332031 166.429688 80.550781 166.429688 74.660156 C 166.429688 68.769531 171.207031 63.992188 177.097656 63.992188 C 182.988281 63.992188 187.765625 68.769531 187.765625 74.660156 C 187.765625 80.550781 182.988281 85.332031 177.097656 85.332031 Z M 177.097656 85.332031 " fill-opacity="1" fill-rule="nonzero"/><path fill="#004aad" d="M 106.953125 96 L 105.511719 96 C 107.542969 93.730469 108.808594 90.742188 108.808594 87.46875 C 108.808594 80.398438 103.070312 74.660156 96 74.660156 C 88.929688 74.660156 83.191406 80.398438 83.191406 87.46875 C 83.191406 90.761719 84.457031 93.730469 86.488281 96 L 85.046875 96 C 75.796875 96 68.246094 103.527344 68.246094 112.800781 L 68.246094 123.46875 C 68.246094 127.15625 71.238281 130.144531 74.921875 130.144531 L 117.03125 130.144531 C 120.71875 130.144531 123.710938 127.15625 123.710938 123.46875 L 123.710938 112.800781 C 123.710938 103.550781 116.183594 96 106.910156 96 Z M 96 78.9375 C 100.710938 78.9375 104.53125 82.757812 104.53125 87.46875 C 104.53125 92.183594 100.710938 96 96 96 C 91.289062 96 87.46875 92.183594 87.46875 87.46875 C 87.46875 82.757812 91.289062 78.9375 96 78.9375 Z M 119.476562 123.46875 C 119.476562 124.820312 118.40625 125.867188 117.078125 125.867188 L 111.796875 125.867188 L 111.796875 117.339844 C 111.796875 116.160156 110.835938 115.199219 109.65625 115.199219 C 108.480469 115.199219 107.519531 116.160156 107.519531 117.339844 L 107.519531 125.867188 L 84.480469 125.867188 L 84.480469 117.339844 C 84.480469 116.160156 83.519531 115.199219 82.34375 115.199219 C 81.164062 115.199219 80.203125 116.160156 80.203125 117.339844 L 80.203125 125.867188 L 74.921875 125.867188 C 73.570312 125.867188 72.523438 124.800781 72.523438 123.46875 L 72.523438 112.800781 C 72.523438 105.882812 78.132812 100.277344 85.046875 100.277344 L 106.929688 100.277344 C 113.847656 100.277344 119.453125 105.882812 119.453125 112.800781 L 119.453125 123.46875 Z M 119.476562 123.46875 " fill-opacity="1" fill-rule="nonzero"/></svg>