<svg xmlns="http://www.w3.org/2000/svg" xmlns:xlink="http://www.w3.org/1999/xlink" width="256" zoomAndPan="magnify" viewBox="0 0 192 191.999996" height="256" preserveAspectRatio="xMidYMid meet" version="1.0"><path fill="#004aad" d="M 42.238281 15.359375 C 42.238281 16.367188 42.140625 17.367188 41.945312 18.355469 C 41.75 19.347656 41.457031 20.304688 41.070312 21.238281 C 40.683594 22.167969 40.210938 23.054688 39.652344 23.894531 C 39.089844 24.730469 38.453125 25.507812 37.742188 26.222656 C 37.027344 26.933594 36.253906 27.570312 35.414062 28.132812 C 34.574219 28.691406 33.691406 29.164062 32.757812 29.550781 C 31.828125 29.9375 30.867188 30.226562 29.875 30.425781 C 28.886719 30.621094 27.886719 30.71875 26.878906 30.71875 C 25.871094 30.71875 24.871094 30.621094 23.882812 30.425781 C 22.894531 30.226562 21.933594 29.9375 21.003906 29.550781 C 20.070312 29.164062 19.183594 28.691406 18.347656 28.132812 C 17.507812 27.570312 16.730469 26.933594 16.019531 26.222656 C 15.304688 25.507812 14.667969 24.730469 14.109375 23.894531 C 13.546875 23.054688 13.074219 22.167969 12.6875 21.238281 C 12.304688 20.304688 12.011719 19.347656 11.816406 18.355469 C 11.617188 17.367188 11.519531 16.367188 11.519531 15.359375 C 11.519531 14.351562 11.617188 13.351562 11.816406 12.363281 C 12.011719 11.375 12.304688 10.414062 12.6875 9.480469 C 13.074219 8.550781 13.546875 7.664062 14.109375 6.828125 C 14.667969 5.988281 15.304688 5.210938 16.019531 4.5 C 16.730469 3.785156 17.507812 3.148438 18.347656 2.589844 C 19.183594 2.027344 20.070312 1.554688 21.003906 1.167969 C 21.933594 0.785156 22.894531 0.492188 23.882812 0.296875 C 24.871094 0.0976562 25.871094 0 26.878906 0 C 27.886719 0 28.886719 0.0976562 29.875 0.296875 C 30.867188 0.492188 31.828125 0.785156 32.757812 1.167969 C 33.691406 1.554688 34.574219 2.027344 35.414062 2.589844 C 36.253906 3.148438 37.027344 3.785156 37.742188 4.5 C 38.453125 5.210938 39.089844 5.988281 39.652344 6.828125 C 40.210938 7.664062 40.683594 8.550781 41.070312 9.480469 C 41.457031 10.414062 41.75 11.375 41.945312 12.363281 C 42.140625 13.351562 42.238281 14.351562 42.238281 15.359375 Z M 42.238281 15.359375 " fill-opacity="1" fill-rule="nonzero"/><path fill="#004aad" d="M 42.238281 145.921875 C 42.238281 146.929688 42.140625 147.925781 41.945312 148.917969 C 41.75 149.90625 41.457031 150.867188 41.070312 151.796875 C 40.683594 152.730469 40.210938 153.613281 39.652344 154.453125 C 39.089844 155.292969 38.453125 156.066406 37.742188 156.78125 C 37.027344 157.496094 36.253906 158.132812 35.414062 158.691406 C 34.574219 159.25 33.691406 159.726562 32.757812 160.109375 C 31.828125 160.496094 30.867188 160.789062 29.875 160.984375 C 28.886719 161.179688 27.886719 161.28125 26.878906 161.28125 C 25.871094 161.28125 24.871094 161.179688 23.882812 160.984375 C 22.894531 160.789062 21.933594 160.496094 21.003906 160.109375 C 20.070312 159.726562 19.183594 159.25 18.347656 158.691406 C 17.507812 158.132812 16.730469 157.496094 16.019531 156.78125 C 15.304688 156.066406 14.667969 155.292969 14.109375 154.453125 C 13.546875 153.613281 13.074219 152.730469 12.6875 151.796875 C 12.304688 150.867188 12.011719 149.90625 11.816406 148.917969 C 11.617188 147.925781 11.519531 146.929688 11.519531 145.921875 C 11.519531 144.910156 11.617188 143.914062 11.816406 142.921875 C 12.011719 141.933594 12.304688 140.972656 12.6875 140.042969 C 13.074219 139.109375 13.546875 138.226562 14.109375 137.386719 C 14.667969 136.546875 15.304688 135.773438 16.019531 135.058594 C 16.730469 134.34375 17.507812 133.707031 18.347656 133.148438 C 19.183594 132.589844 20.070312 132.113281 21.003906 131.730469 C 21.933594 131.34375 22.894531 131.050781 23.882812 130.855469 C 24.871094 130.660156 25.871094 130.558594 26.878906 130.558594 C 27.886719 130.558594 28.886719 130.660156 29.875 130.855469 C 30.867188 131.050781 31.828125 131.34375 32.757812 131.730469 C 33.691406 132.113281 34.574219 132.589844 35.414062 133.148438 C 36.253906 133.707031 37.027344 134.34375 37.742188 135.058594 C 38.453125 135.773438 39.089844 136.546875 39.652344 137.386719 C 40.210938 138.226562 40.683594 139.109375 41.070312 140.042969 C 41.457031 140.972656 41.75 141.933594 41.945312 142.921875 C 42.140625 143.914062 42.238281 144.910156 42.238281 145.921875 Z M 42.238281 145.921875 " fill-opacity="1" fill-rule="nonzero"/><path fill="#004aad" d="M 180.480469 15.359375 C 180.480469 16.367188 180.382812 17.367188 180.183594 18.355469 C 179.988281 19.347656 179.695312 20.304688 179.3125 21.238281 C 178.925781 22.167969 178.453125 23.054688 177.890625 23.894531 C 177.332031 24.730469 176.695312 25.507812 175.980469 26.222656 C 175.269531 26.933594 174.492188 27.570312 173.652344 28.132812 C 172.816406 28.691406 171.929688 29.164062 170.996094 29.550781 C 170.066406 29.9375 169.105469 30.226562 168.117188 30.425781 C 167.128906 30.621094 166.128906 30.71875 165.121094 30.71875 C 164.113281 30.71875 163.113281 30.621094 162.125 30.425781 C 161.132812 30.226562 160.171875 29.9375 159.242188 29.550781 C 158.308594 29.164062 157.425781 28.691406 156.585938 28.132812 C 155.746094 27.570312 154.972656 26.933594 154.257812 26.222656 C 153.546875 25.507812 152.910156 24.730469 152.347656 23.894531 C 151.789062 23.054688 151.316406 22.167969 150.929688 21.238281 C 150.542969 20.304688 150.25 19.347656 150.054688 18.355469 C 149.859375 17.367188 149.761719 16.367188 149.761719 15.359375 C 149.761719 14.351562 149.859375 13.351562 150.054688 12.363281 C 150.25 11.375 150.542969 10.414062 150.929688 9.480469 C 151.316406 8.550781 151.789062 7.664062 152.347656 6.828125 C 152.910156 5.988281 153.546875 5.210938 154.257812 4.5 C 154.972656 3.785156 155.746094 3.148438 156.585938 2.589844 C 157.425781 2.027344 158.308594 1.554688 159.242188 1.167969 C 160.171875 0.785156 161.132812 0.492188 162.125 0.296875 C 163.113281 0.0976562 164.113281 0 165.121094 0 C 166.128906 0 167.128906 0.0976562 168.117188 0.296875 C 169.105469 0.492188 170.066406 0.785156 170.996094 1.167969 C 171.929688 1.554688 172.816406 2.027344 173.652344 2.589844 C 174.492188 3.148438 175.269531 3.785156 175.980469 4.5 C 176.695312 5.210938 177.332031 5.988281 177.890625 6.828125 C 178.453125 7.664062 178.925781 8.550781 179.3125 9.480469 C 179.695312 10.414062 179.988281 11.375 180.183594 12.363281 C 180.382812 13.351562 180.480469 14.351562 180.480469 15.359375 Z M 180.480469 15.359375 " fill-opacity="1" fill-rule="nonzero"/><path fill="#004aad" d="M 180.480469 145.921875 C 180.480469 146.929688 180.382812 147.925781 180.183594 148.917969 C 179.988281 149.90625 179.695312 150.867188 179.3125 151.796875 C 178.925781 152.730469 178.453125 153.613281 177.890625 154.453125 C 177.332031 155.292969 176.695312 156.066406 175.980469 156.78125 C 175.269531 157.496094 174.492188 158.132812 173.652344 158.691406 C 172.816406 159.25 171.929688 159.726562 170.996094 160.109375 C 170.066406 160.496094 169.105469 160.789062 168.117188 160.984375 C 167.128906 161.179688 166.128906 161.28125 165.121094 161.28125 C 164.113281 161.28125 163.113281 161.179688 162.125 160.984375 C 161.132812 160.789062 160.171875 160.496094 159.242188 160.109375 C 158.308594 159.726562 157.425781 159.25 156.585938 158.691406 C 155.746094 158.132812 154.972656 157.496094 154.257812 156.78125 C 153.546875 156.066406 152.910156 155.292969 152.347656 154.453125 C 151.789062 153.613281 151.316406 152.730469 150.929688 151.796875 C 150.542969 150.867188 150.25 149.90625 150.054688 148.917969 C 149.859375 147.925781 149.761719 146.929688 149.761719 145.921875 C 149.761719 144.910156 149.859375 143.914062 150.054688 142.921875 C 150.25 141.933594 150.542969 140.972656 150.929688 140.042969 C 151.316406 139.109375 151.789062 138.226562 152.347656 137.386719 C 152.910156 136.546875 153.546875 135.773438 154.257812 135.058594 C 154.972656 134.34375 155.746094 133.707031 156.585938 133.148438 C 157.425781 132.589844 158.308594 132.113281 159.242188 131.730469 C 160.171875 131.34375 161.132812 131.050781 162.125 130.855469 C 163.113281 130.660156 164.113281 130.558594 165.121094 130.558594 C 166.128906 130.558594 167.128906 130.660156 168.117188 130.855469 C 169.105469 131.050781 170.066406 131.34375 170.996094 131.730469 C 171.929688 132.113281 172.816406 132.589844 173.652344 133.148438 C 174.492188 133.707031 175.269531 134.34375 175.980469 135.058594 C 176.695312 135.773438 177.332031 136.546875 177.890625 137.386719 C 178.453125 138.226562 178.925781 139.109375 179.3125 140.042969 C 179.695312 140.972656 179.988281 141.933594 180.183594 142.921875 C 180.382812 143.914062 180.480469 144.910156 180.480469 145.921875 Z M 180.480469 145.921875 " fill-opacity="1" fill-rule="nonzero"/><path fill="#004aad" d="M 3.839844 61.441406 L 49.921875 61.441406 C 52.03125 61.441406 53.761719 59.710938 53.761719 57.601562 L 53.761719 49.921875 C 53.761719 41.972656 50.265625 34.789062 44.773438 29.914062 C 40.511719 35.097656 34.097656 38.398438 26.878906 38.398438 C 19.660156 38.398438 13.25 35.097656 8.984375 29.914062 C 3.496094 34.789062 0 41.972656 0 49.921875 L 0 57.601562 C 0 59.710938 1.726562 61.441406 3.839844 61.441406 Z M 3.839844 61.441406 " fill-opacity="1" fill-rule="nonzero"/><path fill="#004aad" d="M 44.773438 160.472656 C 40.511719 165.65625 34.097656 168.960938 26.878906 168.960938 C 19.660156 168.960938 13.25 165.65625 8.984375 160.472656 C 3.496094 165.351562 0 172.53125 0 180.480469 L 0 188.160156 C 0 190.273438 1.726562 192 3.839844 192 L 49.921875 192 C 52.03125 192 53.761719 190.273438 53.761719 188.160156 L 53.761719 180.480469 C 53.761719 172.53125 50.265625 165.351562 44.773438 160.472656 Z M 44.773438 160.472656 " fill-opacity="1" fill-rule="nonzero"/><path fill="#004aad" d="M 183.015625 29.914062 C 178.75 35.097656 172.339844 38.398438 165.121094 38.398438 C 157.902344 38.398438 151.488281 35.097656 147.226562 29.914062 C 141.734375 34.789062 138.238281 41.972656 138.238281 49.921875 L 138.238281 57.601562 C 138.238281 59.710938 139.96875 61.441406 142.078125 61.441406 L 188.160156 61.441406 C 190.273438 61.441406 192 59.710938 192 57.601562 L 192 49.921875 C 192 41.972656 188.503906 34.789062 183.015625 29.914062 Z M 183.015625 29.914062 " fill-opacity="1" fill-rule="nonzero"/><path fill="#004aad" d="M 183.015625 160.472656 C 178.75 165.65625 172.339844 168.960938 165.121094 168.960938 C 157.902344 168.960938 151.488281 165.65625 147.226562 160.472656 C 141.734375 165.351562 138.238281 172.53125 138.238281 180.480469 L 138.238281 188.160156 C 138.238281 190.273438 139.96875 192 142.078125 192 L 188.160156 192 C 190.273438 192 192 190.273438 192 188.160156 L 192 180.480469 C 192 172.53125 188.503906 165.351562 183.015625 160.472656 Z M 183.015625 160.472656 " fill-opacity="1" fill-rule="nonzero"/><path fill="#004aad" d="M 60.769531 32.117188 C 82.132812 20.238281 109.867188 20.238281 131.230469 32.117188 C 133.070312 33.140625 135.433594 32.464844 136.453125 30.628906 C 137.484375 28.777344 136.816406 26.4375 134.960938 25.40625 C 123.140625 18.835938 109.667969 15.359375 96 15.359375 C 82.332031 15.359375 68.859375 18.835938 57.039062 25.40625 C 55.183594 26.4375 54.515625 28.777344 55.546875 30.628906 C 56.578125 32.480469 58.914062 33.144531 60.769531 32.117188 Z M 60.769531 32.117188 " fill-opacity="1" fill-rule="nonzero"/><path fill="#004aad" d="M 131.230469 159.882812 C 109.867188 171.761719 82.132812 171.761719 60.769531 159.882812 C 58.914062 158.851562 56.578125 159.515625 55.546875 161.371094 C 54.515625 163.222656 55.183594 165.5625 57.039062 166.59375 C 68.859375 173.164062 82.332031 176.640625 96 176.640625 C 109.667969 176.640625 123.140625 173.164062 134.960938 166.59375 C 136.816406 165.5625 137.484375 163.222656 136.453125 161.371094 C 135.421875 159.515625 133.078125 158.851562 131.230469 159.882812 Z M 131.230469 159.882812 " fill-opacity="1" fill-rule="nonzero"/><path fill="#004aad" d="M 167.972656 123.035156 C 168.34375 123.160156 168.738281 123.226562 169.152344 123.226562 C 170.773438 123.226562 172.28125 122.191406 172.804688 120.5625 C 175.351562 112.6875 176.640625 104.421875 176.640625 96 C 176.640625 87.742188 175.390625 79.597656 172.929688 71.804688 C 172.289062 69.777344 170.121094 68.664062 168.109375 69.296875 C 166.089844 69.9375 164.964844 72.09375 165.605469 74.117188 C 167.832031 81.164062 168.960938 88.527344 168.960938 96 C 168.960938 103.621094 167.796875 111.089844 165.496094 118.203125 C 164.839844 120.246094 166.0625 122.390625 167.972656 123.035156 Z M 167.972656 123.035156 " fill-opacity="1" fill-rule="nonzero"/><path fill="#004aad" d="M 23.890625 69.296875 C 21.878906 68.664062 19.710938 69.777344 19.070312 71.804688 C 16.609375 79.597656 15.359375 87.742188 15.359375 96 C 15.359375 104.421875 16.648438 112.6875 19.195312 120.5625 C 19.839844 122.558594 22.042969 123.675781 24.027344 123.039062 C 26.046875 122.386719 27.15625 120.222656 26.503906 118.207031 C 24.203125 111.089844 23.039062 103.621094 23.039062 96 C 23.039062 88.527344 24.167969 81.164062 26.394531 74.117188 C 27.035156 72.09375 25.910156 69.9375 23.890625 69.296875 Z M 23.890625 69.296875 " fill-opacity="1" fill-rule="nonzero"/><path fill="#004aad" d="M 107.519531 96 C 107.519531 96.757812 107.445312 97.503906 107.296875 98.246094 C 107.152344 98.988281 106.933594 99.710938 106.644531 100.410156 C 106.355469 101.105469 106 101.769531 105.578125 102.398438 C 105.160156 103.027344 104.679688 103.609375 104.144531 104.144531 C 103.609375 104.679688 103.027344 105.160156 102.398438 105.578125 C 101.769531 106 101.105469 106.355469 100.410156 106.644531 C 99.710938 106.933594 98.988281 107.152344 98.246094 107.296875 C 97.503906 107.445312 96.757812 107.519531 96 107.519531 C 95.242188 107.519531 94.496094 107.445312 93.753906 107.296875 C 93.011719 107.152344 92.289062 106.933594 91.589844 106.644531 C 90.894531 106.355469 90.230469 106 89.601562 105.578125 C 88.972656 105.160156 88.390625 104.679688 87.855469 104.144531 C 87.320312 103.609375 86.839844 103.027344 86.421875 102.398438 C 86 101.769531 85.644531 101.105469 85.355469 100.410156 C 85.066406 99.710938 84.847656 98.988281 84.703125 98.246094 C 84.554688 97.503906 84.480469 96.757812 84.480469 96 C 84.480469 95.242188 84.554688 94.496094 84.703125 93.753906 C 84.847656 93.011719 85.066406 92.289062 85.355469 91.589844 C 85.644531 90.894531 86 90.230469 86.421875 89.601562 C 86.839844 88.972656 87.320312 88.390625 87.855469 87.855469 C 88.390625 87.320312 88.972656 86.839844 89.601562 86.421875 C 90.230469 86 90.894531 85.644531 91.589844 85.355469 C 92.289062 85.066406 93.011719 84.847656 93.753906 84.703125 C 94.496094 84.554688 95.242188 84.480469 96 84.480469 C 96.757812 84.480469 97.503906 84.554688 98.246094 84.703125 C 98.988281 84.847656 99.710938 85.066406 100.410156 85.355469 C 101.105469 85.644531 101.769531 86 102.398438 86.421875 C 103.027344 86.839844 103.609375 87.320312 104.144531 87.855469 C 104.679688 88.390625 105.160156 88.972656 105.578125 89.601562 C 106 90.230469 106.355469 90.894531 106.644531 91.589844 C 106.933594 92.289062 107.152344 93.011719 107.296875 93.753906 C 107.445312 94.496094 107.519531 95.242188 107.519531 96 Z M 107.519531 96 " fill-opacity="1" fill-rule="nonzero"/><path fill="#004aad" d="M 149.761719 92.160156 L 134.398438 92.160156 L 134.398438 88.320312 C 134.398438 86.363281 132.929688 84.71875 130.984375 84.503906 C 129.308594 84.316406 128.628906 83.09375 128.414062 82.574219 C 128.203125 82.054688 127.816406 80.707031 128.867188 79.390625 C 130.089844 77.863281 129.96875 75.660156 128.582031 74.277344 L 117.722656 63.417969 C 116.339844 62.03125 114.136719 61.90625 112.609375 63.132812 C 111.292969 64.183594 109.945312 63.804688 109.425781 63.585938 C 108.90625 63.371094 107.683594 62.691406 107.496094 61.015625 C 107.28125 59.070312 105.636719 57.601562 103.679688 57.601562 L 99.839844 57.601562 L 99.839844 46.078125 L 109.769531 46.078125 L 108.644531 47.203125 C 107.144531 48.703125 107.144531 51.132812 108.644531 52.632812 C 110.027344 54.015625 112.605469 54.101562 114.074219 52.636719 L 121.753906 44.953125 C 123.253906 43.453125 123.253906 41.023438 121.753906 39.523438 L 114.074219 31.84375 C 112.574219 30.34375 110.144531 30.34375 108.644531 31.84375 C 107.144531 33.34375 107.144531 35.773438 108.644531 37.273438 L 109.769531 38.398438 L 96 38.398438 C 93.878906 38.398438 92.160156 40.121094 92.160156 42.238281 L 92.160156 57.601562 L 88.320312 57.601562 C 86.363281 57.601562 84.71875 59.070312 84.503906 61.015625 C 84.316406 62.691406 83.09375 63.371094 82.574219 63.585938 C 82.054688 63.804688 80.707031 64.183594 79.390625 63.132812 C 77.863281 61.90625 75.65625 62.03125 74.277344 63.417969 L 63.417969 74.277344 C 62.03125 75.660156 61.910156 77.863281 63.132812 79.390625 C 64.183594 80.707031 63.796875 82.054688 63.585938 82.574219 C 63.371094 83.09375 62.691406 84.316406 61.015625 84.503906 C 59.070312 84.71875 57.601562 86.363281 57.601562 88.320312 L 57.601562 92.160156 L 46.078125 92.160156 L 46.078125 82.230469 C 46.078125 82.230469 47.203125 83.355469 47.203125 83.355469 C 48.691406 84.839844 51.152344 84.839844 52.636719 83.355469 C 54.136719 81.855469 54.136719 79.425781 52.636719 77.925781 L 44.953125 70.246094 C 43.453125 68.746094 41.023438 68.746094 39.523438 70.246094 L 31.84375 77.925781 C 30.34375 79.425781 30.34375 81.855469 31.84375 83.355469 C 33.34375 84.855469 35.773438 84.855469 37.273438 83.355469 L 38.398438 82.230469 L 38.398438 96 C 38.398438 98.121094 40.121094 99.839844 42.238281 99.839844 L 57.601562 99.839844 L 57.601562 103.679688 C 57.601562 105.636719 59.070312 107.28125 61.015625 107.496094 C 62.691406 107.683594 63.371094 108.90625 63.585938 109.425781 C 63.796875 109.945312 64.183594 111.292969 63.132812 112.609375 C 61.910156 114.136719 62.03125 116.339844 63.417969 117.722656 L 74.277344 128.582031 C 75.65625 129.96875 77.863281 130.089844 79.390625 128.867188 C 80.707031 127.816406 82.058594 128.203125 82.574219 128.414062 C 83.09375 128.628906 84.316406 129.308594 84.503906 130.984375 C 84.71875 132.929688 86.363281 134.398438 88.320312 134.398438 L 92.160156 134.398438 L 92.160156 145.921875 L 82.230469 145.921875 L 83.355469 144.796875 C 84.855469 143.296875 84.855469 140.863281 83.355469 139.363281 C 81.855469 137.863281 79.425781 137.863281 77.925781 139.363281 L 70.246094 147.046875 C 68.746094 148.546875 68.746094 150.976562 70.246094 152.476562 C 70.246094 152.476562 77.925781 160.15625 77.925781 160.15625 C 79.414062 161.644531 81.871094 161.640625 83.355469 160.15625 C 84.855469 158.65625 84.855469 156.226562 83.355469 154.726562 L 82.230469 153.601562 L 96 153.601562 C 98.121094 153.601562 99.839844 151.878906 99.839844 149.761719 L 99.839844 134.398438 L 103.679688 134.398438 C 105.636719 134.398438 107.28125 132.929688 107.496094 130.984375 C 107.683594 129.308594 108.90625 128.628906 109.425781 128.414062 C 109.949219 128.203125 111.292969 127.816406 112.609375 128.867188 C 114.136719 130.09375 116.34375 129.96875 117.722656 128.582031 L 128.582031 117.722656 C 129.96875 116.339844 130.089844 114.136719 128.867188 112.609375 C 127.816406 111.292969 128.203125 109.945312 128.414062 109.425781 C 128.628906 108.90625 129.308594 107.683594 130.984375 107.496094 C 132.929688 107.28125 134.398438 105.636719 134.398438 103.679688 L 134.398438 99.839844 L 145.921875 99.839844 L 145.921875 109.769531 L 144.796875 108.644531 C 143.296875 107.144531 140.863281 107.144531 139.363281 108.644531 C 137.863281 110.144531 137.863281 112.574219 139.363281 114.074219 C 139.363281 114.074219 147.046875 121.753906 147.046875 121.753906 C 148.53125 123.242188 150.988281 123.242188 152.476562 121.753906 L 160.15625 114.074219 C 161.65625 112.574219 161.65625 110.144531 160.15625 108.644531 C 158.65625 107.144531 156.226562 107.144531 154.726562 108.644531 L 153.601562 109.769531 L 153.601562 96 C 153.601562 93.878906 151.878906 92.160156 149.761719 92.160156 Z M 96 115.199219 C 85.414062 115.199219 76.800781 106.585938 76.800781 96 C 76.800781 85.414062 85.414062 76.800781 96 76.800781 C 106.585938 76.800781 115.199219 85.414062 115.199219 96 C 115.199219 106.585938 106.585938 115.199219 96 115.199219 Z M 96 115.199219 " fill-opacity="1" fill-rule="nonzero"/></svg>