<svg xmlns="http://www.w3.org/2000/svg" xmlns:xlink="http://www.w3.org/1999/xlink" width="256" zoomAndPan="magnify" viewBox="0 0 192 191.999996" height="256" preserveAspectRatio="xMidYMid meet" version="1.0"><path fill="#004aad" d="M 161.574219 135.472656 C 160.085938 134.21875 159.066406 132.613281 158.558594 130.734375 L 153.820312 113.347656 C 153.113281 110.722656 151.703125 108.335938 149.785156 106.378906 L 149.550781 106.140625 L 159.339844 83.3125 C 160.164062 81.355469 160.59375 79.277344 160.59375 77.125 L 160.59375 63.730469 C 160.59375 60.835938 161.964844 58.054688 164.273438 56.292969 L 191.882812 35.066406 L 160.984375 0.0195312 L 135.453125 30.445312 C 134.199219 31.933594 132.59375 32.953125 130.714844 33.460938 L 113.328125 38.199219 C 110.703125 38.90625 108.316406 40.316406 106.359375 42.234375 L 106.121094 42.46875 L 83.292969 32.679688 C 81.335938 31.855469 79.257812 31.425781 77.105469 31.425781 L 63.710938 31.425781 C 60.816406 31.425781 58.035156 30.054688 56.273438 27.746094 L 35.046875 0.136719 L 30.074219 3.976562 L 38.257812 14.625 L 16.289062 36.59375 L 3.996094 26.21875 L 0 30.996094 L 30.425781 56.527344 C 31.914062 57.78125 32.933594 59.386719 33.441406 61.265625 L 38.179688 78.652344 C 38.886719 81.277344 40.296875 83.664062 42.214844 85.621094 L 42.449219 85.859375 L 32.660156 108.6875 C 31.835938 110.644531 31.40625 112.722656 31.40625 114.875 L 31.40625 128.269531 C 31.40625 131.164062 30.035156 133.945312 27.726562 135.707031 L 0.117188 156.933594 L 30.976562 191.980469 L 56.507812 161.554688 C 57.761719 160.066406 59.367188 159.046875 61.246094 158.539062 L 78.632812 153.800781 C 81.257812 153.09375 83.644531 151.683594 85.601562 149.765625 L 85.839844 149.53125 L 108.667969 159.320312 C 110.625 160.144531 112.703125 160.574219 114.855469 160.574219 L 128.246094 160.574219 C 131.144531 160.574219 133.925781 161.945312 135.6875 164.253906 L 156.914062 191.863281 L 161.886719 188.023438 L 157.773438 182.699219 L 180.761719 159.710938 L 187.964844 165.742188 L 192 160.925781 Z M 110.820312 46.660156 C 111.957031 45.523438 113.40625 44.660156 115.011719 44.230469 L 132.398438 39.492188 C 133.144531 39.296875 133.847656 39.023438 134.550781 38.75 L 155.035156 59.230469 C 154.601562 60.679688 154.367188 62.207031 154.367188 63.773438 L 154.367188 77.164062 C 154.367188 78.457031 154.09375 79.671875 153.625 80.882812 L 144.8125 101.441406 L 140.113281 96.742188 L 142.855469 84.917969 C 143.167969 83.546875 142.542969 82.136719 141.328125 81.472656 C 140.113281 80.804688 138.585938 81 137.605469 81.980469 L 131.5 88.089844 L 127.074219 83.664062 L 133.183594 77.554688 L 128.757812 73.128906 L 122.609375 79.277344 C 120.964844 77.949219 118.929688 77.242188 116.773438 77.242188 C 116.421875 77.242188 116.070312 77.28125 115.71875 77.28125 L 124.332031 68.667969 L 119.90625 64.242188 L 108.394531 75.636719 C 106.867188 74.617188 105.066406 74.070312 103.1875 74.070312 C 102.363281 74.070312 101.582031 74.1875 100.835938 74.382812 L 115.402344 59.816406 L 110.980469 55.390625 L 88.460938 77.910156 C 87.011719 76.929688 85.328125 76.421875 83.644531 76.34375 C 83.527344 76.027344 83.488281 75.675781 83.488281 75.324219 C 83.488281 74.5 83.800781 73.71875 84.390625 73.089844 Z M 39.472656 59.621094 C 38.847656 57.386719 37.789062 55.351562 36.300781 53.628906 L 54.980469 34.949219 C 57.566406 36.671875 60.621094 37.652344 63.753906 37.652344 L 77.144531 37.652344 C 78.4375 37.652344 79.652344 37.925781 80.863281 38.394531 L 101.421875 47.207031 L 96.722656 51.90625 L 84.898438 49.164062 C 83.527344 48.851562 82.117188 49.476562 81.453125 50.691406 C 80.785156 51.90625 80.980469 53.433594 81.960938 54.414062 L 88.070312 60.519531 L 83.644531 64.945312 L 77.535156 58.835938 L 73.109375 63.261719 L 79.257812 69.410156 C 77.929688 71.054688 77.222656 73.089844 77.222656 75.246094 C 77.222656 75.597656 77.261719 75.949219 77.261719 76.300781 L 68.648438 67.6875 L 64.222656 72.113281 L 73.855469 81.746094 L 69.390625 86.210938 L 59.757812 76.578125 L 55.921875 80.414062 C 53.492188 78.378906 50.28125 77.515625 47.148438 78.144531 C 46.363281 78.300781 45.699219 78.730469 45.230469 79.394531 C 44.757812 78.652344 44.40625 77.828125 44.171875 76.96875 Z M 58.933594 84.605469 L 64.964844 90.636719 L 57.722656 97.878906 L 59.367188 90.714844 C 59.835938 88.675781 59.679688 86.523438 58.933594 84.605469 Z M 81.140625 145.339844 C 80.003906 146.476562 78.554688 147.339844 76.949219 147.769531 L 59.5625 152.507812 C 58.816406 152.703125 58.113281 152.976562 57.40625 153.25 L 36.925781 132.769531 C 37.359375 131.320312 37.59375 129.792969 37.59375 128.226562 L 37.59375 114.835938 C 37.59375 113.542969 37.867188 112.328125 38.335938 111.117188 L 49.851562 84.253906 C 50.710938 84.410156 51.535156 84.800781 52.160156 85.464844 C 53.179688 86.484375 53.570312 87.894531 53.21875 89.304688 L 49.105469 107.082031 C 48.792969 108.453125 49.417969 109.863281 50.632812 110.527344 C 51.847656 111.195312 53.375 111 54.355469 110.019531 L 80.941406 83.429688 C 82.15625 82.214844 84.152344 82.214844 85.367188 83.429688 C 85.957031 84.015625 86.269531 84.800781 86.269531 85.660156 C 86.269531 86.484375 85.957031 87.265625 85.367188 87.894531 L 58.777344 114.484375 L 63.203125 118.910156 L 100.875 81.238281 C 101.460938 80.648438 102.246094 80.335938 103.109375 80.335938 C 103.96875 80.335938 104.714844 80.648438 105.339844 81.238281 C 105.925781 81.824219 106.242188 82.605469 106.242188 83.46875 C 106.242188 84.332031 105.925781 85.074219 105.339844 85.699219 L 67.667969 123.371094 L 72.09375 127.796875 L 103.109375 96.78125 C 104.320312 95.570312 106.320312 95.570312 107.53125 96.78125 C 108.121094 97.371094 108.433594 98.152344 108.433594 99.015625 C 108.433594 99.835938 108.121094 100.621094 107.53125 101.246094 L 76.519531 132.261719 L 80.941406 136.6875 L 103.109375 114.523438 C 103.695312 113.933594 104.476562 113.621094 105.339844 113.621094 C 106.199219 113.621094 106.945312 113.933594 107.570312 114.523438 C 108.160156 115.109375 108.472656 115.894531 108.472656 116.753906 C 108.472656 117.617188 108.160156 118.359375 107.570312 118.988281 Z M 145.753906 167.113281 L 140.660156 160.457031 C 137.726562 156.621094 133.066406 154.347656 128.246094 154.347656 L 114.855469 154.347656 C 113.5625 154.347656 112.347656 154.074219 111.136719 153.605469 L 90.578125 144.792969 L 95.277344 140.09375 L 107.101562 142.835938 C 107.335938 142.875 107.570312 142.914062 107.804688 142.914062 C 108.941406 142.914062 110 142.324219 110.546875 141.308594 C 111.214844 140.09375 111.019531 138.566406 110.039062 137.585938 L 103.929688 131.480469 L 108.355469 127.054688 L 114.464844 133.164062 L 118.890625 128.738281 L 112.742188 122.589844 C 114.070312 120.945312 114.777344 118.910156 114.777344 116.753906 C 114.777344 116.402344 114.738281 116.050781 114.738281 115.699219 L 123.351562 124.3125 L 127.777344 119.886719 L 112.78125 104.890625 C 114.113281 103.246094 114.816406 101.207031 114.816406 99.054688 C 114.816406 98.703125 114.777344 98.347656 114.777344 97.996094 L 132.242188 115.460938 L 136.667969 111.039062 L 114.503906 88.871094 C 113.914062 88.285156 113.601562 87.503906 113.601562 86.640625 C 113.601562 85.78125 113.914062 85.035156 114.503906 84.410156 C 115.089844 83.820312 115.875 83.507812 116.734375 83.507812 C 117.558594 83.507812 118.339844 83.820312 118.96875 84.410156 L 145.398438 110.839844 C 146.535156 111.976562 147.398438 113.425781 147.828125 115.03125 L 152.566406 132.417969 C 153.425781 135.511719 155.152344 138.214844 157.617188 140.289062 L 165.800781 147.183594 Z M 145.753906 167.113281 " fill-opacity="1" fill-rule="nonzero"/><path fill="#004aad" d="M 13.667969 50.613281 C 6.03125 64.4375 1.996094 80.140625 1.996094 96 C 1.996094 110.800781 5.324219 124.976562 11.945312 138.136719 L 17.542969 135.316406 C 11.394531 123.058594 8.261719 109.824219 8.261719 96 C 8.261719 81.199219 12.023438 66.550781 19.148438 53.667969 Z M 13.667969 50.613281 " fill-opacity="1" fill-rule="nonzero"/><path fill="#004aad" d="M 95.980469 183.71875 C 81.179688 183.71875 66.53125 179.957031 53.648438 172.832031 L 50.632812 178.3125 C 64.417969 185.949219 80.121094 189.984375 95.980469 189.984375 C 110.78125 189.984375 124.957031 186.65625 138.117188 180.035156 L 135.296875 174.4375 C 123.039062 180.585938 109.804688 183.71875 95.980469 183.71875 Z M 95.980469 183.71875 " fill-opacity="1" fill-rule="nonzero"/><path fill="#004aad" d="M 178.292969 141.386719 C 185.929688 127.5625 189.964844 111.859375 189.964844 96 C 189.964844 81.199219 186.636719 67.023438 180.015625 53.863281 L 174.417969 56.683594 C 180.566406 68.941406 183.699219 82.175781 183.699219 96 C 183.699219 110.800781 179.9375 125.449219 172.8125 138.332031 Z M 178.292969 141.386719 " fill-opacity="1" fill-rule="nonzero"/><path fill="#004aad" d="M 95.980469 8.28125 C 110.78125 8.28125 125.429688 12.042969 138.3125 19.167969 L 141.328125 13.6875 C 127.542969 6.050781 111.839844 2.015625 95.980469 2.015625 C 81.179688 2.015625 67.003906 5.34375 53.84375 11.964844 L 56.664062 17.5625 C 68.921875 11.414062 82.15625 8.28125 95.980469 8.28125 Z M 95.980469 8.28125 " fill-opacity="1" fill-rule="nonzero"/></svg>