<svg xmlns="http://www.w3.org/2000/svg" xmlns:xlink="http://www.w3.org/1999/xlink" width="256" zoomAndPan="magnify" viewBox="0 0 192 191.999996" height="256" preserveAspectRatio="xMidYMid meet" version="1.0"><path fill="#004aad" d="M 187.339844 23.867188 C 185.105469 23.867188 184.226562 22.160156 184.007812 21.636719 C 183.792969 21.113281 183.207031 19.28125 184.789062 17.703125 C 186.578125 15.910156 186.582031 12.992188 184.789062 11.199219 L 180.742188 7.152344 C 179.871094 6.285156 178.71875 5.804688 177.488281 5.804688 C 176.261719 5.804688 175.105469 6.285156 174.238281 7.152344 C 172.65625 8.734375 170.828125 8.148438 170.304688 7.929688 C 169.78125 7.714844 168.074219 6.832031 168.074219 4.601562 C 168.074219 2.0625 166.007812 0 163.472656 0 L 157.753906 0 C 155.214844 0 153.152344 2.0625 153.152344 4.601562 C 153.152344 6.832031 151.445312 7.714844 150.921875 7.929688 C 150.398438 8.148438 148.570312 8.734375 146.988281 7.152344 C 145.195312 5.359375 142.277344 5.359375 140.484375 7.152344 L 136.4375 11.199219 C 134.644531 12.992188 134.644531 15.910156 136.4375 17.703125 C 138.019531 19.28125 137.433594 21.113281 137.21875 21.636719 C 137 22.160156 136.121094 23.867188 133.886719 23.867188 C 131.351562 23.867188 129.285156 25.929688 129.285156 28.464844 L 129.285156 34.1875 C 129.285156 36.722656 131.351562 38.785156 133.886719 38.785156 C 136.121094 38.785156 137 40.492188 137.21875 41.015625 C 137.433594 41.539062 138.019531 43.371094 136.4375 44.949219 C 135.570312 45.820312 135.089844 46.972656 135.089844 48.203125 C 135.089844 49.429688 135.570312 50.585938 136.4375 51.453125 L 140.484375 55.5 C 142.277344 57.292969 145.195312 57.292969 146.988281 55.5 C 148.574219 53.917969 150.402344 54.5 150.925781 54.71875 C 151.445312 54.933594 153.152344 55.816406 153.152344 58.054688 C 153.152344 60.589844 155.214844 62.652344 157.753906 62.652344 L 163.472656 62.652344 C 166.007812 62.652344 168.074219 60.589844 168.074219 58.054688 C 168.074219 55.820312 169.78125 54.9375 170.304688 54.722656 C 170.824219 54.503906 172.65625 53.921875 174.234375 55.5 C 175.105469 56.367188 176.261719 56.847656 177.488281 56.847656 C 178.71875 56.847656 179.871094 56.367188 180.742188 55.5 L 184.785156 51.453125 C 185.65625 50.585938 186.132812 49.429688 186.132812 48.203125 C 186.132812 46.972656 185.65625 45.820312 184.785156 44.949219 C 183.207031 43.371094 183.792969 41.539062 184.007812 41.015625 C 184.226562 40.492188 185.105469 38.785156 187.339844 38.785156 C 189.875 38.785156 191.941406 36.722656 191.941406 34.1875 L 191.941406 28.464844 C 191.941406 25.929688 189.875 23.867188 187.339844 23.867188 Z M 186.5 33.382812 C 183.136719 33.679688 180.300781 35.75 178.984375 38.933594 C 177.664062 42.121094 178.203125 45.589844 180.371094 48.175781 L 177.464844 51.082031 C 174.875 48.914062 171.40625 48.375 168.222656 49.695312 C 165.035156 51.015625 162.964844 53.847656 162.667969 57.210938 L 158.558594 57.210938 C 158.261719 53.84375 156.191406 51.011719 153.007812 49.691406 C 149.820312 48.371094 146.351562 48.914062 143.761719 51.082031 L 140.855469 48.175781 C 143.023438 45.589844 143.5625 42.121094 142.246094 38.933594 C 140.925781 35.75 138.09375 33.679688 134.730469 33.382812 L 134.730469 29.269531 C 138.09375 28.972656 140.925781 26.902344 142.246094 23.71875 C 143.566406 20.53125 143.023438 17.066406 140.855469 14.476562 L 143.765625 11.570312 C 146.351562 13.738281 149.820312 14.277344 153.003906 12.957031 C 156.191406 11.636719 158.261719 8.804688 158.558594 5.441406 L 162.667969 5.441406 C 162.964844 8.804688 165.035156 11.636719 168.222656 12.957031 C 171.40625 14.277344 174.875 13.738281 177.464844 11.570312 L 180.371094 14.476562 C 178.203125 17.0625 177.664062 20.53125 178.984375 23.71875 C 180.300781 26.902344 183.136719 28.972656 186.5 29.269531 Z M 160.613281 15.664062 C 151.976562 15.664062 144.949219 22.691406 144.949219 31.328125 C 144.949219 39.964844 151.976562 46.988281 160.613281 46.988281 C 169.25 46.988281 176.277344 39.964844 176.277344 31.328125 C 176.277344 22.691406 169.25 15.664062 160.613281 15.664062 Z M 160.613281 41.546875 C 154.976562 41.546875 150.390625 36.960938 150.390625 31.328125 C 150.390625 25.691406 154.976562 21.105469 160.613281 21.105469 C 166.25 21.105469 170.835938 25.691406 170.835938 31.328125 C 170.835938 36.960938 166.25 41.546875 160.613281 41.546875 Z M 95.941406 70.800781 C 108.648438 70.800781 118.988281 60.460938 118.988281 47.753906 C 118.988281 35.050781 108.648438 24.710938 95.941406 24.710938 C 83.234375 24.710938 72.894531 35.050781 72.894531 47.753906 C 72.894531 60.460938 83.234375 70.800781 95.941406 70.800781 Z M 95.941406 30.152344 C 105.648438 30.152344 113.546875 38.050781 113.546875 47.753906 C 113.546875 57.460938 105.648438 65.359375 95.941406 65.359375 C 86.234375 65.359375 78.335938 57.460938 78.335938 47.753906 C 78.335938 38.050781 86.234375 30.152344 95.941406 30.152344 Z M 180.558594 75.257812 C 177.519531 75.257812 174.660156 76.441406 172.511719 78.589844 L 149.011719 102.089844 L 128.074219 90 C 126.507812 89.097656 124.914062 88.128906 123.375 87.195312 C 115.175781 82.21875 106.703125 77.074219 95.941406 77.074219 C 85.179688 77.074219 76.707031 82.21875 68.507812 87.195312 C 66.964844 88.132812 65.371094 89.097656 63.808594 90.003906 L 42.867188 102.09375 L 19.367188 78.59375 C 14.929688 74.15625 7.710938 74.15625 3.273438 78.59375 C -1.164062 83.03125 -1.164062 90.25 3.273438 94.6875 L 32.933594 124.347656 C 36.5625 127.980469 42.214844 128.714844 46.671875 126.132812 L 62.449219 117.023438 L 62.449219 158.6875 L 46.871094 156.722656 C 42.453125 156.164062 38.054688 157.484375 34.488281 160.433594 C 30.652344 163.609375 28.269531 168.269531 27.957031 173.226562 C 27.648438 178.175781 29.433594 183.105469 32.859375 186.753906 C 36.019531 190.121094 40.207031 191.976562 44.652344 191.976562 L 105.472656 192 L 147.230469 191.976562 C 151.675781 191.976562 155.863281 190.121094 159.023438 186.753906 C 162.445312 183.101562 164.234375 178.175781 163.921875 173.226562 C 163.609375 168.269531 161.230469 163.609375 157.390625 160.433594 C 153.824219 157.484375 149.429688 156.164062 145.007812 156.722656 L 129.433594 158.6875 L 129.433594 117.023438 L 145.207031 126.128906 C 149.667969 128.710938 155.316406 127.980469 158.945312 124.34375 L 188.605469 94.683594 C 190.753906 92.535156 191.941406 89.679688 191.941406 86.636719 C 191.941406 83.597656 190.757812 80.742188 188.605469 78.589844 C 186.457031 76.441406 183.601562 75.257812 180.558594 75.257812 Z M 113.886719 178.621094 C 113.601562 183.105469 110.023438 186.515625 105.554688 186.558594 C 105.550781 186.558594 105.476562 186.558594 105.472656 186.558594 L 44.652344 186.535156 C 41.726562 186.535156 38.945312 185.289062 36.828125 183.03125 C 34.460938 180.507812 33.175781 176.972656 33.390625 173.570312 C 33.609375 170.105469 35.273438 166.847656 37.957031 164.625 C 40 162.933594 42.425781 162.039062 44.902344 162.039062 C 45.332031 162.039062 45.761719 162.066406 46.191406 162.121094 L 106.53125 169.734375 C 110.933594 170.289062 114.164062 174.195312 113.886719 178.621094 Z M 145.6875 162.121094 C 148.601562 161.753906 151.527344 162.644531 153.921875 164.625 C 156.609375 166.847656 158.273438 170.105469 158.492188 173.570312 C 158.703125 176.972656 157.421875 180.507812 155.054688 183.03125 C 152.933594 185.289062 150.152344 186.535156 147.226562 186.535156 L 116.53125 186.554688 C 118.128906 184.441406 119.136719 181.835938 119.316406 178.964844 C 119.648438 173.703125 116.96875 168.894531 112.730469 166.28125 Z M 184.757812 90.835938 L 155.097656 120.5 C 153.207031 122.390625 150.261719 122.769531 147.929688 121.417969 L 128.074219 109.953125 C 127.230469 109.46875 126.195312 109.46875 125.351562 109.953125 C 124.511719 110.441406 123.992188 111.339844 123.992188 112.308594 L 123.992188 159.375 L 95.941406 162.914062 L 67.886719 159.375 L 67.886719 112.3125 C 67.886719 111.339844 67.371094 110.441406 66.527344 109.957031 C 65.6875 109.46875 64.648438 109.46875 63.808594 109.957031 L 43.945312 121.421875 C 41.617188 122.769531 38.671875 122.394531 36.78125 120.5 L 7.121094 90.839844 C 4.804688 88.523438 4.804688 84.757812 7.121094 82.441406 C 9.4375 80.125 13.203125 80.125 15.519531 82.441406 L 40.496094 107.417969 C 41.367188 108.285156 42.714844 108.464844 43.78125 107.847656 L 66.527344 94.714844 C 68.144531 93.78125 69.765625 92.796875 71.332031 91.847656 C 79.238281 87.046875 86.703125 82.515625 95.941406 82.515625 C 105.179688 82.515625 112.644531 87.046875 120.550781 91.847656 C 122.117188 92.796875 123.734375 93.78125 125.351562 94.714844 L 148.101562 107.847656 C 149.167969 108.464844 150.511719 108.285156 151.382812 107.414062 L 176.359375 82.4375 C 177.480469 81.316406 178.972656 80.699219 180.558594 80.699219 C 182.144531 80.699219 183.636719 81.316406 184.757812 82.441406 C 185.878906 83.5625 186.5 85.050781 186.5 86.640625 C 186.5 88.226562 185.878906 89.714844 184.757812 90.835938 Z M 25.96875 50.445312 C 26.761719 51.15625 27.757812 51.507812 28.75 51.507812 C 29.746094 51.507812 30.738281 51.152344 31.53125 50.445312 C 43.734375 39.554688 57.5625 27.207031 57.5625 14.359375 C 57.5625 6.441406 50.488281 0 41.796875 0 C 36.125 0 32.132812 1.9375 28.75 6.417969 C 25.367188 1.9375 21.375 0 15.707031 0 C 7.011719 0 -0.0585938 6.441406 -0.0585938 14.359375 C -0.0585938 27.207031 13.769531 39.554688 25.96875 50.445312 Z M 15.707031 5.441406 C 20.132812 5.441406 22.632812 6.871094 25.25 10.902344 C 26.023438 12.09375 27.332031 12.804688 28.75 12.804688 C 30.167969 12.804688 31.480469 12.09375 32.253906 10.902344 C 34.871094 6.871094 37.367188 5.441406 41.796875 5.441406 C 47.488281 5.441406 52.121094 9.441406 52.121094 14.359375 C 52.121094 24.511719 39.882812 35.6875 28.75 45.636719 C 17.617188 35.6875 5.382812 24.511719 5.382812 14.359375 C 5.382812 9.441406 10.011719 5.441406 15.707031 5.441406 Z M 15.707031 5.441406 " fill-opacity="1" fill-rule="nonzero"/></svg>