<svg xmlns="http://www.w3.org/2000/svg" xmlns:xlink="http://www.w3.org/1999/xlink" width="294" zoomAndPan="magnify" viewBox="0 0 220.5 148.499996" height="198" preserveAspectRatio="xMidYMid meet" version="1.0"><defs><clipPath id="f1f108c0b1"><path d="M 0.121094 0 L 219.882812 0 L 219.882812 148 L 0.121094 148 Z M 0.121094 0 " clip-rule="nonzero"/></clipPath><clipPath id="512333279e"><path d="M 56.578125 63 L 65 63 L 65 71 L 56.578125 71 Z M 56.578125 63 " clip-rule="nonzero"/></clipPath><clipPath id="e5687d6b06"><path d="M 84 20.378906 L 122 20.378906 L 122 39 L 84 39 Z M 84 20.378906 " clip-rule="nonzero"/></clipPath><clipPath id="d6df205023"><path d="M 114 66 L 163.46875 66 L 163.46875 127.269531 L 114 127.269531 Z M 114 66 " clip-rule="nonzero"/></clipPath></defs><g clip-path="url(#f1f108c0b1)"><path fill="#ffffff" d="M 0.121094 0 L 219.882812 0 L 219.882812 148 L 0.121094 148 Z M 0.121094 0 " fill-opacity="1" fill-rule="nonzero"/><path fill="#ffffff" d="M 0.121094 0 L 219.882812 0 L 219.882812 148 L 0.121094 148 Z M 0.121094 0 " fill-opacity="1" fill-rule="nonzero"/></g><path fill="#203b72" d="M 82.804688 82.445312 C 82.804688 82.445312 82.808594 82.445312 82.808594 82.445312 C 83.265625 82.445312 83.699219 82.242188 83.992188 81.890625 L 87.386719 77.824219 C 87.933594 77.171875 87.84375 76.203125 87.1875 75.660156 C 86.53125 75.117188 85.558594 75.207031 85.015625 75.859375 L 82.808594 78.5 L 82.222656 77.792969 C 81.679688 77.140625 80.707031 77.046875 80.050781 77.589844 C 79.394531 78.132812 79.304688 79.101562 79.847656 79.753906 L 81.617188 81.886719 C 81.910156 82.242188 82.347656 82.445312 82.804688 82.445312 Z M 82.804688 82.445312 " fill-opacity="1" fill-rule="nonzero"/><path fill="#203b72" d="M 77.164062 99.207031 L 77.175781 99.21875 L 83.761719 101.671875 L 84.050781 94.671875 L 66.710938 68.652344 C 66.691406 68.628906 66.671875 68.597656 66.65625 68.570312 L 66.476562 68.300781 L 59.597656 72.847656 L 69.207031 87.261719 C 69.238281 87.304688 69.265625 87.347656 69.292969 87.390625 L 77.109375 99.121094 C 77.128906 99.148438 77.148438 99.175781 77.164062 99.207031 Z M 77.164062 99.207031 " fill-opacity="1" fill-rule="nonzero"/><g clip-path="url(#512333279e)"><path fill="#203b72" d="M 63.507812 63.84375 C 63.449219 63.871094 63.382812 63.90625 63.3125 63.949219 L 56.804688 68.253906 C 56.734375 68.304688 56.675781 68.351562 56.632812 68.394531 L 57.890625 70.285156 L 64.769531 65.738281 Z M 63.507812 63.84375 " fill-opacity="1" fill-rule="nonzero"/></g><g clip-path="url(#e5687d6b06)"><path fill="#203b72" d="M 121.441406 27.058594 L 110.121094 27.058594 C 109.289062 27.058594 108.605469 26.398438 108.578125 25.570312 C 108.480469 22.660156 106.113281 20.378906 103.1875 20.378906 C 100.261719 20.378906 97.894531 22.660156 97.796875 25.570312 C 97.769531 26.398438 97.085938 27.058594 96.253906 27.058594 L 84.9375 27.058594 L 84.9375 38.578125 L 121.441406 38.578125 Z M 121.441406 27.058594 " fill-opacity="1" fill-rule="nonzero"/></g><g clip-path="url(#d6df205023)"><path fill="#10a4de" d="M 163.34375 99.859375 L 158.980469 92.148438 C 158.789062 91.808594 158.730469 91.410156 158.824219 91.035156 C 159.167969 89.597656 159.34375 88.117188 159.34375 86.632812 C 159.34375 75.386719 149.347656 66.234375 137.0625 66.234375 C 124.773438 66.234375 114.777344 75.386719 114.777344 86.632812 C 114.777344 90.480469 115.953125 94.222656 118.171875 97.460938 C 118.203125 97.507812 118.234375 97.554688 118.261719 97.605469 C 118.382812 97.832031 118.496094 98.058594 118.613281 98.285156 C 118.632812 98.316406 118.648438 98.347656 118.664062 98.378906 C 122.949219 106.738281 124.042969 114.625 121.949219 121.929688 C 121.933594 122.007812 121.910156 122.082031 121.886719 122.152344 C 121.371094 123.890625 120.675781 125.597656 119.796875 127.269531 L 146.324219 127.269531 L 146.625 119.929688 C 146.65625 119.167969 147.242188 118.546875 148.003906 118.464844 L 156.449219 117.566406 C 158.109375 117.386719 159.339844 116.046875 159.367188 114.382812 L 159.421875 111.707031 L 157.453125 110.039062 C 157.058594 109.707031 156.859375 109.199219 156.917969 108.6875 C 156.980469 108.175781 157.292969 107.730469 157.753906 107.496094 L 159.871094 106.425781 L 159.535156 103.34375 C 159.464844 102.710938 159.796875 102.101562 160.367188 101.808594 L 163.175781 100.382812 C 163.277344 100.332031 163.332031 100.285156 163.371094 100.152344 C 163.414062 100.015625 163.394531 99.949219 163.34375 99.859375 Z M 149.300781 92.15625 C 149.152344 92.15625 149.003906 92.152344 148.855469 92.144531 C 148.480469 95.542969 145.582031 98.199219 142.074219 98.199219 L 140.1875 98.199219 C 136.671875 98.261719 136.648438 98.464844 136.609375 99.785156 L 136.609375 105.488281 C 136.609375 106.335938 135.917969 107.023438 135.0625 107.023438 C 134.210938 107.023438 133.519531 106.335938 133.519531 105.488281 L 133.519531 100.625 C 130.972656 99.777344 128.980469 98.417969 127.574219 96.570312 C 127.050781 96.667969 126.535156 96.722656 126.054688 96.722656 C 123.300781 96.722656 119.046875 93.722656 119.046875 89.738281 C 119.046875 87.558594 120.085938 85.511719 121.785156 84.207031 C 121.535156 83.433594 121.410156 82.621094 121.410156 81.804688 C 121.410156 77.472656 124.945312 73.945312 129.292969 73.945312 C 129.804688 73.945312 130.3125 73.992188 130.8125 74.09375 C 132.402344 71.140625 135.605469 69.242188 139.203125 69.242188 C 143.71875 69.242188 147.625 72.328125 148.457031 76.484375 C 148.738281 76.453125 149.015625 76.441406 149.300781 76.441406 C 153.648438 76.441406 157.183594 79.964844 157.183594 84.292969 C 157.183594 88.628906 153.648438 92.15625 149.300781 92.15625 Z M 149.300781 92.15625 " fill-opacity="1" fill-rule="nonzero"/></g><path fill="#203b72" d="M 78.714844 105.644531 C 80.957031 108.285156 84.933594 108.621094 87.582031 106.390625 C 88.871094 105.308594 89.65625 103.792969 89.800781 102.125 C 89.941406 100.457031 89.421875 98.832031 88.339844 97.554688 C 87.964844 97.113281 87.535156 96.734375 87.066406 96.414062 L 86.757812 103.914062 C 86.738281 104.40625 86.484375 104.859375 86.070312 105.132812 C 85.816406 105.304688 85.515625 105.390625 85.21875 105.390625 C 85.035156 105.390625 84.851562 105.359375 84.675781 105.292969 L 77.304688 102.550781 C 77.476562 103.675781 77.953125 104.742188 78.714844 105.644531 Z M 78.714844 105.644531 " fill-opacity="1" fill-rule="nonzero"/><path fill="#203b72" d="M 118.1875 105 C 117.910156 105.414062 117.4375 105.6875 116.898438 105.6875 L 97.324219 105.6875 C 96.472656 105.6875 95.78125 105 95.78125 104.152344 C 95.78125 103.304688 96.472656 102.613281 97.324219 102.613281 L 116.898438 102.613281 C 117.027344 102.613281 117.152344 102.632812 117.273438 102.660156 C 116.976562 101.972656 116.660156 101.28125 116.316406 100.582031 L 97.324219 100.582031 C 96.472656 100.582031 95.78125 99.894531 95.78125 99.042969 C 95.78125 98.195312 96.472656 97.507812 97.324219 97.507812 L 114.574219 97.507812 C 112.6875 94.167969 111.695312 90.445312 111.695312 86.632812 C 111.695312 85.386719 111.800781 84.160156 112.003906 82.964844 L 97.324219 82.964844 C 96.472656 82.964844 95.78125 82.273438 95.78125 81.425781 C 95.78125 80.578125 96.472656 79.886719 97.324219 79.886719 L 112.761719 79.886719 C 112.988281 79.195312 113.246094 78.519531 113.535156 77.855469 L 97.324219 77.855469 C 96.472656 77.855469 95.78125 77.167969 95.78125 76.316406 C 95.78125 75.46875 96.472656 74.78125 97.324219 74.78125 L 115.171875 74.78125 C 119.585938 67.835938 127.742188 63.160156 137.0625 63.160156 C 137.101562 63.160156 137.136719 63.164062 137.175781 63.164062 L 137.175781 33.582031 L 124.527344 33.582031 L 124.527344 40.113281 C 124.527344 40.960938 123.835938 41.652344 122.984375 41.652344 L 83.394531 41.652344 C 82.542969 41.652344 81.851562 40.960938 81.851562 40.113281 L 81.851562 33.582031 L 69.507812 33.582031 L 69.507812 67.292969 L 74.855469 75.316406 C 75.425781 73.945312 76.316406 72.710938 77.480469 71.730469 C 79.394531 70.121094 81.824219 69.351562 84.320312 69.5625 C 86.816406 69.773438 89.082031 70.941406 90.699219 72.851562 C 92.3125 74.757812 93.085938 77.175781 92.875 79.664062 C 92.664062 82.152344 91.488281 84.410156 89.574219 86.019531 C 87.851562 87.46875 85.710938 88.222656 83.53125 88.222656 C 83.507812 88.222656 83.480469 88.222656 83.457031 88.222656 L 86.449219 92.714844 C 88.105469 93.257812 89.5625 94.234375 90.695312 95.570312 C 92.3125 97.476562 93.085938 99.898438 92.875 102.386719 C 92.664062 104.871094 91.488281 107.128906 89.574219 108.738281 C 87.867188 110.175781 85.75 110.941406 83.542969 110.941406 C 83.273438 110.941406 83.003906 110.929688 82.734375 110.910156 C 80.238281 110.699219 77.972656 109.53125 76.359375 107.625 C 74.632812 105.589844 73.878906 102.976562 74.230469 100.363281 L 69.507812 93.273438 L 69.507812 120.097656 L 119.261719 120.097656 C 120.421875 115.339844 120.066406 110.332031 118.1875 105 Z M 97.324219 52.058594 L 131.269531 52.058594 C 132.125 52.058594 132.8125 52.75 132.8125 53.597656 C 132.8125 54.445312 132.125 55.136719 131.269531 55.136719 L 97.324219 55.136719 C 96.472656 55.136719 95.78125 54.445312 95.78125 53.597656 C 95.78125 52.75 96.472656 52.058594 97.324219 52.058594 Z M 97.324219 57.167969 L 116.898438 57.167969 C 117.75 57.167969 118.441406 57.855469 118.441406 58.707031 C 118.441406 59.554688 117.75 60.242188 116.898438 60.242188 L 97.324219 60.242188 C 96.472656 60.242188 95.78125 59.554688 95.78125 58.707031 C 95.78125 57.855469 96.472656 57.167969 97.324219 57.167969 Z M 92.875 56.941406 C 92.664062 59.425781 91.488281 61.683594 89.574219 63.292969 C 87.816406 64.769531 85.667969 65.492188 83.53125 65.492188 C 80.863281 65.492188 78.210938 64.367188 76.359375 62.179688 C 74.738281 60.265625 73.964844 57.84375 74.179688 55.355469 C 74.394531 52.871094 75.566406 50.617188 77.480469 49.011719 C 81.429688 45.6875 87.359375 46.1875 90.695312 50.125 C 92.3125 52.035156 93.085938 54.453125 92.875 56.941406 Z M 92.875 56.941406 " fill-opacity="1" fill-rule="nonzero"/><path fill="#203b72" d="M 87.1875 52.941406 C 86.53125 52.398438 85.558594 52.484375 85.015625 53.136719 L 82.808594 55.777344 L 82.222656 55.074219 C 81.679688 54.417969 80.707031 54.328125 80.050781 54.871094 C 79.394531 55.414062 79.304688 56.382812 79.847656 57.035156 L 81.621094 59.164062 C 81.914062 59.515625 82.347656 59.71875 82.804688 59.71875 C 82.808594 59.71875 82.808594 59.71875 82.808594 59.71875 C 83.265625 59.71875 83.699219 59.515625 83.992188 59.164062 L 87.386719 55.105469 C 87.929688 54.453125 87.84375 53.484375 87.1875 52.941406 Z M 87.1875 52.941406 " fill-opacity="1" fill-rule="nonzero"/><path fill="#10a4de" d="M 149.300781 79.515625 C 148.722656 79.515625 148.152344 79.617188 147.605469 79.816406 C 147.113281 80 146.558594 79.917969 146.140625 79.601562 C 145.722656 79.285156 145.492188 78.78125 145.53125 78.257812 C 145.535156 78.21875 145.535156 78.179688 145.535156 78.140625 C 145.535156 77.867188 145.515625 77.597656 145.476562 77.335938 C 145.046875 74.476562 142.347656 72.316406 139.203125 72.316406 C 136.40625 72.316406 133.972656 73.972656 133.148438 76.4375 C 133.011719 76.839844 132.71875 77.167969 132.328125 77.347656 C 131.941406 77.523438 131.5 77.535156 131.101562 77.375 C 130.523438 77.140625 129.914062 77.019531 129.292969 77.019531 C 126.648438 77.019531 124.496094 79.167969 124.496094 81.804688 C 124.496094 82.613281 124.6875 83.382812 125.074219 84.085938 C 125.273438 84.457031 125.3125 84.894531 125.183594 85.296875 C 125.050781 85.695312 124.761719 86.027344 124.378906 86.207031 C 123.015625 86.851562 122.136719 88.238281 122.136719 89.738281 C 122.136719 91.835938 124.765625 93.644531 126.058594 93.644531 C 127.886719 93.644531 130.710938 92.324219 130.710938 90.570312 C 130.710938 90.386719 130.6875 90.207031 130.644531 90.03125 C 128.96875 89.15625 127.824219 87.410156 127.824219 85.398438 C 127.824219 84.550781 128.515625 83.859375 129.367188 83.859375 C 130.21875 83.859375 130.910156 84.550781 130.910156 85.398438 C 130.910156 86.28125 131.449219 87.042969 132.210938 87.375 C 132.308594 87.398438 132.398438 87.429688 132.488281 87.472656 C 132.671875 87.523438 132.867188 87.554688 133.066406 87.554688 C 133.859375 87.554688 134.589844 87.121094 134.96875 86.429688 C 135.375 85.683594 136.3125 85.40625 137.058594 85.8125 C 137.808594 86.21875 138.085938 87.152344 137.679688 87.898438 C 136.878906 89.367188 135.429688 90.347656 133.796875 90.578125 C 133.792969 92.75 132.410156 94.386719 130.644531 95.425781 C 131.511719 96.3125 132.613281 97.007812 133.972656 97.523438 C 135.023438 95.214844 137.710938 95.167969 140.144531 95.125 C 140.15625 95.125 140.164062 95.125 140.171875 95.125 L 142.074219 95.125 C 144.132812 95.125 145.808594 93.453125 145.808594 91.398438 C 145.808594 91.148438 145.785156 90.894531 145.730469 90.628906 C 145.503906 89.8125 144.894531 88.453125 143.316406 88.164062 C 142.480469 88.011719 141.925781 87.210938 142.078125 86.375 C 142.234375 85.539062 143.035156 84.984375 143.875 85.140625 C 145.953125 85.519531 147.605469 86.9375 148.433594 89.003906 C 148.71875 89.054688 149.007812 89.082031 149.300781 89.082031 C 151.945312 89.082031 154.097656 86.933594 154.097656 84.292969 C 154.097656 81.660156 151.945312 79.515625 149.300781 79.515625 Z M 149.300781 79.515625 " fill-opacity="1" fill-rule="nonzero"/></svg>